
        <svg xmlns="http://www.w3.org/2000/svg" xmlns:xlink="http://www.w3.org/1999/xlink" version="1.1" width="3174.3098392931743" height="984.8505920064342" viewBox="0 0 3174.3098392931743 984.8505920064342">
			
			<g transform="scale(8.71549196465871) translate(10, 10)">
				<defs id="SvgjsDefs62977"/><g id="SvgjsG62978" featureKey="rootContainer" transform="matrix(1,0,0,1,0,0)" fill="#000"><rect y="0" height="1" width="1" opacity="0"/><rect y="88" width="344" height="5"/></g><g id="SvgjsG62979" featureKey="nameLeftFeature-0" transform="matrix(1.1494248785649046,0,0,1.1494248785649046,-0.597701188974457,18.149430724842162)" fill="#000"><path d="M0.56 39.36 c0 -0.52 0.2 -0.28 0.44 -0.44 c0.28 0 0.76 0.04 1.28 0.04 c1.04 0 2.28 -0.12 2.4 -0.88 c0 -0.76 -0.12 -0.68 -0.12 -1.68 c0 -0.36 0.04 -3.4 0.04 -3.8 c0 -0.52 -0.04 -1.44 -0.04 -2.44 l0 -12.96 c0 -0.04 0.04 -0.4 0.04 -0.44 s-0.04 -0.12 -0.04 -0.56 l0 -4.16 c-0.08 -0.24 -0.08 -0.84 -0.32 -0.84 c-1.08 0 -2.8 0.12 -2.96 0.12 c-0.32 0 -0.76 -0.08 -0.76 -0.56 c0 -0.92 0.44 -0.88 0.56 -1 l2.32 0.04 s0.72 0.04 0.96 0.04 c0.12 0 0.36 -0.04 0.8 -0.04 l3.72 0 c0.08 0 0.28 -0.08 0.36 -0.08 s0.28 0.08 0.48 0.08 l6.28 -0.04 c0.36 0.04 1.32 0.32 2.4 0.32 c-0.04 0 -0.04 -0.04 -0.04 -0.04 c0.08 0 0.76 0.44 1.48 0.44 c0.12 0 1.56 0.04 1.56 0.6 c0 -0.04 0 -0.08 0.12 -0.08 c0.2 0 0.8 0.2 2.36 1.2 l0 0.08 c0.08 0.32 1.28 0.76 1.76 1.44 c0.04 0.48 1.4 1.44 1.4 1.76 c-0.04 0.04 -0.04 0.04 -0.04 0.08 l0 -0.04 c0.12 0 1 1.56 1.52 3.12 c-0.04 0 -0.04 0.04 -0.04 0.04 c0 0.24 0.92 1.48 0.92 3.36 c0.12 0.64 0.24 3.36 0.24 3.8 c0 0.28 -0.16 0.96 -0.16 1.48 c0 0 -0.32 1.52 -0.32 1.68 l-0.04 -0.04 c-0.12 0 0 1.48 -0.48 1.96 c-0.2 0 0.16 0.88 -0.64 1.68 c-0.12 0.08 -0.32 0.32 -0.32 0.84 c-1.44 2.48 -1.44 1.52 -1.96 2.6 c0 0.28 -0.32 0.24 -0.56 0.4 c-0.64 1.08 -1.76 1.52 -3.52 2.4 c-0.6 0 -1.68 0.76 -2.68 0.84 c0 0.04 -4.44 0.32 -6.48 0.32 c-0.48 0 -1 -0.04 -1.48 -0.04 c-0.24 0 -5.16 0.04 -7 0.08 c-0.16 0 -0.6 -0.04 -1.24 -0.04 c-0.68 0 -0.76 0.2 -1.52 0.2 c-0.36 -0.04 -0.68 -0.24 -0.68 -0.84 z M1 39.8 c0.2 0.08 0.32 0.08 0.4 0.08 c0.24 0 0.2 0 0.24 -0.08 l-0.64 0 z M2.76 39.88 c0 -0.04 -0.04 -0.04 -0.04 -0.04 c-0.04 0 -0.04 0 -0.04 0.04 s0 0.08 0.04 0.08 c0 0 0.04 -0.04 0.04 -0.08 z M3.28 39.8 c-0.04 0 -0.08 0.04 -0.08 0.08 s0.04 0.08 0.08 0.08 s0.04 -0.04 0.04 -0.08 s0 -0.08 -0.04 -0.08 z M13.72 39.72 c-0.04 0 -0.08 0.04 -0.08 0.08 s0.04 0.08 0.08 0.08 s0.04 -0.04 0.04 -0.08 s0 -0.08 -0.04 -0.08 z M14.36 39.8 c0 -0.04 -0.04 -0.04 -0.04 -0.04 c-0.04 0 -0.04 0 -0.04 0.04 s0 0.08 0.04 0.08 c0 0 0.04 -0.04 0.04 -0.08 z M1.72 39.24 c-0.12 0.04 -0.12 0.16 -0.12 0.24 c0.08 -0.04 0.12 -0.16 0.12 -0.24 z M0.96 39.16 c0 0.12 0.04 0.12 0.2 0.2 l-0.04 0.04 c0.08 0 0.32 -0.16 0.28 -0.28 c-0.12 0 -0.44 0 -0.44 0.04 l0 0 z M1.6 39.16 c-0.04 0 -0.04 0.04 -0.04 0.08 s0 0.04 0.04 0.04 l0 -0.12 z M10.48 37.28 c0.12 0.92 0.08 1.56 0.52 1.56 l2.72 0 c0.08 0 0.16 -0.04 0.24 -0.04 c0 0 0.28 0.04 0.52 0.04 c0.6 0 1.48 -0.04 1.8 -0.2 c-0.32 -0.24 0.36 0.32 1.2 -0.32 c1.88 -0.12 1.16 -0.4 1.88 -0.76 c0.12 0 0.96 -0.48 1.12 -0.84 c0 -0.32 0.64 -0.48 0.68 -0.64 c-0.04 -0.04 -0.08 -0.08 -0.08 -0.12 c0 -0.24 0.68 -0.4 0.68 -1.04 c-0.04 -0.04 -0.04 -0.04 -0.04 -0.08 c0 -0.16 0.4 -0.28 0.4 -1 l0 0.04 c0.12 0 0.92 -3.28 0.92 -4.96 c0 -0.04 -0.04 -0.64 -0.04 -1.28 s0.04 -1.28 0.2 -1.4 c0 -0.08 -0.08 -0.48 -0.08 -0.56 c0 0 0.08 -0.8 0.08 -0.88 c0 -10.8 -2.76 -11.48 -3.84 -12.6 c-0.8 0 -0.96 -0.72 -2.12 -0.72 c-2.16 -0.12 -3.2 -0.28 -6.28 -0.28 c-0.6 1.52 -0.08 3.08 -0.52 3.92 c0 0.08 0.12 0.28 0.12 1.24 c0 0.48 0 0.44 -0.08 0.6 l0 2.12 c0 0.04 0.08 0.32 0.08 0.4 c-0.04 0.04 -0.08 0.16 -0.08 0.16 c0 0.08 0.08 0.56 0.08 0.88 l-0.08 0.08 c0 0.04 0.08 0.4 0.08 0.52 l0 4.64 c0 0.08 0.04 0.4 0.04 0.48 c0 0.64 -0.12 2.48 -0.12 3.84 c0 0.32 0.08 0.6 0.08 0.72 c0 0.4 -0.08 0.88 -0.08 1.28 c0 0.52 0.04 1.56 0.12 1.56 c0 0.04 -0.04 0.68 -0.04 0.76 c0 0.04 -0.04 0.04 -0.04 0.08 s0.08 0.16 0.08 0.4 c0 0.08 0 0.48 -0.12 2.4 z M4.92 37.12 c-0.04 0 -0.04 0 -0.04 0.04 s0 0.08 0.04 0.08 s0.04 -0.04 0.04 -0.08 s0 -0.04 -0.04 -0.04 z M23.84 30.880000000000003 l0 0.04 l0.04 0 z M9.16 19.4 l-0.08 0.08 l0.08 0 l0 -0.08 z M4.92 16.12 c-0.08 0.16 -0.04 0.48 -0.04 0.64 z M5.08 15.920000000000002 c-0.04 0 -0.08 0.04 -0.08 0.08 c0 0 0.04 0.04 0.08 0.04 s0.04 -0.04 0.04 -0.04 c0 -0.04 0 -0.08 -0.04 -0.08 z M23.28 13.52 l-0.04 -0.04 c-0.04 0 -0.04 0.04 -0.04 0.04 c0 0.04 0 0.08 0.04 0.08 c0 0 0.04 -0.04 0.04 -0.08 z M23.56 13.52 c0 0 -0.04 -0.04 -0.08 -0.04 l-0.04 0.04 c0 0.04 0.04 0.08 0.04 0.08 c0.04 0 0.08 -0.04 0.08 -0.08 z M17.4 10.559999999999999 c0 0.16 0.08 0.2 0.12 0.2 s0.04 -0.04 0.04 -0.04 c0 -0.12 -0.16 -0.24 -0.32 -0.24 c-0.08 0.04 -0.32 -0.04 -0.4 0.08 l0.56 0 z M2.96 10.48 c-0.04 0 -0.08 0.04 -0.08 0.08 s0.04 0.08 0.08 0.08 s0.04 -0.04 0.04 -0.08 s0 -0.08 -0.04 -0.08 z M11.28 10.48 c-0.12 0 -0.12 0.04 -0.16 0.08 l0.16 -0.08 l0 0 z M15.64 10.48 l-0.44 0 l0 0.08 c0.2 0 0.56 0.04 0.64 -0.08 l-0.2 0 z M16.16 10.48 c0 -0.04 -0.04 -0.04 -0.04 -0.04 c-0.04 0 -0.04 0 -0.04 0.04 l0.08 0 z M42.364 39.72 c0 -0.24 0.12 -0.32 0.12 -0.36 c-0.16 0 -0.16 0 -0.24 0.04 c-0.32 0 -0.88 -0.32 -1.12 -0.32 c-2.04 -1.64 -2.28 -2.36 -2.68 -3.04 c0 -0.52 -0.52 -0.72 -0.52 -1.96 c-0.2 -3.24 -0.44 -6.36 -0.44 -9.08 c0 -2.56 0.04 -3.52 0.04 -4.64 c0 -0.32 -0.04 -5.48 -0.04 -8.72 l-0.24 -0.36 l-0.64 0 c-0.08 -0.36 -0.16 -0.84 -0.56 -0.84 c-0.32 0 -0.28 0.12 -0.28 0.36 c0.08 0 0.36 -0.12 0.4 -0.16 l0.08 0.08 l0 0.44 c-0.08 0.04 -0.12 0.04 -0.16 0.04 c-0.12 0 -0.32 -0.04 -0.36 -0.04 l0.04 0.04 l-0.08 0.08 c-0.56 0 -1.32 0.12 -1.56 0.12 c-0.8 -0.24 -0.72 -0.4 -0.72 -0.92 c0.16 -0.04 0.28 -0.64 0.96 -0.64 c0.2 -0.04 0.92 0.12 1 0.12 c0.12 0 0.24 -0.04 0.36 -0.12 l2.2 0 c0.04 0.04 0.04 0.12 0.08 0.12 c0.12 0 0.44 -0.12 0.68 -0.12 c0.36 0 0.6 0.04 0.68 0.08 l1.8 0 l0.08 -0.08 l2.12 0 l0.16 0.08 c0.08 -0.08 0.16 -0.08 0.24 -0.08 c0.48 0 0.6 0.08 0.76 0.08 c0.08 0 0.24 -0.08 0.24 -0.08 l1.96 0 c0.36 0 0.6 0.4 0.72 0.6 c0 0 -0.04 0.6 -0.08 0.64 l-0.4 0.2 c-1.84 0 -1.68 -0.12 -2.92 -0.12 c-0.36 0 -0.68 0.2 -0.68 1.52 c0 0.56 0.08 0.68 0.08 0.8 l0 0 s-0.08 0.8 -0.08 1.32 c0 0.24 -0.04 0.84 0.08 0.92 c-0.04 0.64 0.04 0.52 -0.08 0.64 c0 0.12 0.08 0.2 0.08 0.32 l0 2.88 c0 0.16 -0.12 0.44 -0.12 0.48 s0.04 0.12 0.12 0.24 l0 1.36 l-0.08 0.12 c0 0.76 0.08 0.92 0.08 1.36 l0 4.08 c-0.08 0.12 -0.08 0.2 -0.08 0.28 c0 0.64 0.08 0.72 0.08 0.96 c-0.04 0.16 -0.08 0.32 -0.08 0.44 c0 0.08 0 0.2 0.08 0.36 l0 3.8 c0 2.8 0.8 2.96 0.8 3.4 c-0.04 0.04 -0.08 0.08 -0.08 0.12 c0 0.24 0.72 0.6 0.76 1.04 c0 -0.04 0.88 1.04 1.56 1.04 c-0.08 0 1.16 0.64 2.32 0.64 c1.52 0 1.72 -0.04 2.12 -0.04 s1.92 0 2.12 -0.28 l0 0.04 c0.04 0 0.16 -0.44 0.6 -0.44 c1.56 0 3.04 -2.88 3.36 -3.2 c0 -2.4 0.64 -3.28 0.64 -4.56 c0 -2.16 -0.2 -7.52 -0.2 -8.12 c0 -0.08 0.12 -0.2 0.12 -0.36 l0 -3.36 c-0.04 -0.08 -0.12 -0.2 -0.12 -0.2 c0 -0.08 0.04 -0.12 0.12 -0.2 c0 -1.8 -0.12 -1.64 -0.12 -2.2 c0 -0.08 0.12 -0.2 0.12 -0.32 l0 -4.16 c0 -0.2 -0.08 -0.48 -0.4 -0.68 c-3.36 0 -2.08 0.12 -3 0.12 c-0.48 0 -0.68 -0.12 -0.68 -0.88 c0.28 -0.36 -0.6 -0.64 3.16 -0.64 c0.2 0 1.56 0.04 1.64 0.04 c0.08 0.04 0.32 0.12 0.28 0.12 c0.04 0 0.12 -0.04 0.28 -0.12 c0.04 0 2.88 -0.12 3.2 -0.12 c0.28 0 1 0 1 0.72 c0 0.96 -0.28 0.84 -0.6 0.84 c-0.16 0 -0.84 -0.04 -0.72 -0.2 l0.28 0 c-0.08 0 -0.08 -0.08 -0.16 -0.08 c-0.12 0 -0.52 0.2 -0.88 0.2 c-0.28 0 -0.56 -0.04 -0.84 -0.04 c-0.4 0 -1.16 0.08 -1.16 0.64 c0 0.6 0.2 3.56 0.2 6.84 c0 0.08 0 0.08 -0.04 0.16 l0 10 c-0.04 5.12 -0.8 6.24 -0.8 6.76 c0 1.36 -0.92 1.16 -0.92 1.52 c0.04 0.04 0.04 0.12 0.04 0.16 c0 0.28 -0.52 0.52 -0.72 0.76 c0 -0.12 0 -0.32 -0.32 -0.32 c-0.08 0 -0.24 0.08 -0.28 0.12 c0.52 0 0.2 0.36 0.48 0.36 c0 0.16 -0.56 0.4 -0.72 0.4 l0.04 0.08 c-0.04 0 -0.04 -0.04 -0.04 -0.04 c-0.04 0.12 0.16 0.68 -0.76 0.68 c-0.76 0 -0.64 0.32 -0.72 0.4 l0.12 0.04 c0 0.04 -0.4 0.32 -0.96 0.32 c-0.04 0 -0.04 -0.04 -0.08 -0.08 c-0.4 0 -0.28 0.4 -0.8 0.4 c-0.72 0.2 -1.84 0.4 -3.28 0.4 c-4.64 0 -7.04 -0.92 -7.04 -1.04 z M49.483999999999995 40.04 l0 0.08 c0.12 0.04 0 0.52 0.12 0.52 s0.28 0 0.28 -0.08 c0 -0.16 -0.16 -0.32 -0.16 -0.44 c0 -0.04 0 -0.04 0.04 -0.08 l-0.28 0 z M49.324 40.52 l0 0.08 l0.12 0 l-0.04 -0.08 l-0.08 0 z M50.604 40.28 c-0.08 0 -0.08 0.08 -0.08 0.16 l0.12 0 c0 -0.04 -0.04 -0.12 -0.04 -0.16 z M50.524 40.12 l-0.04 0.04 c0 0.04 0.04 0.04 0.04 0.04 c0.04 0 0.04 0 0.04 -0.04 c0 0 0 -0.04 -0.04 -0.04 z M48.524 39.96 c-0.04 0 -0.08 0 -0.12 0.04 l0.2 0 z M49.324 39.96 l0 0.04 l0.08 0 z M48.724000000000004 39.88 c0 0 -0.04 0.04 -0.04 0.08 l0.04 0.04 c0.04 0 0.04 -0.04 0.04 -0.04 c0 -0.04 0 -0.08 -0.04 -0.08 z M47.844 39.8 l0 0.08 l0.12 0 l-0.04 -0.08 l-0.08 0 z M50.084 39.8 c-0.04 0 -0.04 0.04 -0.04 0.08 s0 0.08 0.04 0.08 s0.04 -0.04 0.04 -0.08 s0 -0.08 -0.04 -0.08 z M53.763999999999996 39.16 c-0.4 0 -0.36 0.32 -0.36 0.52 c0.28 -0.56 0.32 -0.32 0.4 -0.52 l-0.04 0 z M52.684 39.4 c-0.04 0 -0.08 0.04 -0.08 0.08 s0.04 0.08 0.08 0.08 l0 -0.16 z M55.284 38.96 c-0.04 0 -0.08 0.04 -0.08 0.08 c0 0 0.04 0.04 0.08 0.04 s0.04 -0.04 0.04 -0.04 c0 -0.04 0 -0.08 -0.04 -0.08 z M54.964 38.48 c-0.16 0 -0.12 0 -0.16 0.04 c0.32 0 0.2 0 0.32 -0.04 l-0.16 0 z M55.884 38.4 c-0.04 0 -0.04 0.04 -0.04 0.08 c0 0 0 0.04 0.04 0.04 s0.04 -0.04 0.04 -0.04 c0 -0.04 0 -0.08 -0.04 -0.08 z M44.804 38.24 c-0.04 0 -0.04 0.04 -0.04 0.08 s0 0.08 0.04 0.08 c0 0 0.04 -0.04 0.04 -0.08 s-0.04 -0.08 -0.04 -0.08 z M56.123999999999995 38 c-0.04 0 -0.04 0.04 -0.04 0.08 s0 0.08 0.04 0.08 s0.04 -0.04 0.04 -0.08 s0 -0.08 -0.04 -0.08 z M57.084 37.28 c-0.08 0 -0.24 0.2 -0.24 0.28 c0.32 0 0.16 -0.2 0.32 -0.28 l-0.08 0 z M39.924 37.08 l0.04 0.08 l0 -0.12 z M57.324 36.84 l-0.08 0.2 l0.16 -0.12 c-0.04 -0.04 -0.04 -0.08 -0.08 -0.08 z M38.884 36.12 c-0.04 0 -0.08 0.04 -0.08 0.08 s0.04 0.08 0.08 0.08 s0.04 -0.04 0.04 -0.08 s0 -0.08 -0.04 -0.08 z M57.164 35.64 l-0.04 0.04 c0 0.04 0.04 0.04 0.12 0.04 c0.12 0 0.12 -0.2 0.12 -0.24 c-0.24 0 -0.2 0.2 -0.2 0.16 z M58.123999999999995 35.480000000000004 l-0.04 -0.04 z M58.123999999999995 34.24 c-0.08 0.2 -0.04 0.28 -0.04 0.28 c0.04 -0.04 0.04 0.04 0.04 -0.28 z M38.124 34 c-0.04 0 -0.08 0.04 -0.08 0.04 c0 0.04 0.04 0.04 0.08 0.04 c0 0 0.04 0 0.04 -0.04 z M58.403999999999996 33.76 c0.04 0.08 0.08 0.08 0.16 0.08 c0 -0.04 -0.04 -0.16 -0.04 -0.24 c-0.08 0 -0.08 0.08 -0.12 0.16 z M38.044 33.28 c0 0.2 0.12 0.4 0.12 0.4 l0 -0.4 l-0.12 0 z M58.444 32.76 c-0.28 0 -0.08 0.36 -0.24 0.4 c0.24 0 0.28 -0.04 0.36 -0.04 c0 -0.12 -0.12 -0.2 -0.12 -0.36 z M57.964 32.44 c0.08 0.04 0.12 0.08 0.12 0.16 l0.04 -0.08 c0 -0.08 0 -0.08 -0.04 -0.12 z M38.804 32.36 c0 -0.04 -0.04 -0.04 -0.04 -0.04 c-0.04 0 -0.04 0 -0.04 0.04 s0 0.04 0.04 0.04 c0 0 0.04 0 0.04 -0.04 z M58.724000000000004 31.48 l-0.08 0.08 l0.08 0 l0 -0.08 z M57.964 29.36 c-0.04 0 -0.08 0.04 -0.08 0.08 s0.04 0.08 0.08 0.08 c0 0 0.04 -0.04 0.04 -0.08 s-0.04 -0.08 -0.04 -0.08 z M58.084 28.439999999999998 c-0.04 0 -0.08 0 -0.08 0.04 c0 0 0.04 0.04 0.08 0.04 l0 -0.08 z M58.084 28.08 c-0.04 0 -0.08 0.04 -0.08 0.08 c0 0 0.04 0.04 0.08 0.04 l0 -0.12 z M58.724000000000004 28.08 c-0.04 0 -0.08 0 -0.08 0.04 l0.08 0 l0.04 0 c0 -0.04 0 -0.04 -0.04 -0.04 z M57.964 27.96 c0 0.12 0 0.12 0.04 0.12 l0.08 -0.04 l-0.12 -0.08 l0 0 z M37.964 27.560000000000002 c-0.04 0 -0.04 0.04 -0.04 0.08 s0 0.08 0.04 0.08 s0.04 -0.04 0.04 -0.08 s0 -0.08 -0.04 -0.08 z M58.724000000000004 27 l0 0.12 l0.08 0 c0 -0.08 -0.04 -0.12 -0.08 -0.12 z M37.964 19.4 l0 0.04 l0.2 0 c-0.08 -0.08 -0.16 -0.04 -0.2 -0.04 z M58.724000000000004 18.96 c0 0.08 -0.04 0.32 0.08 0.32 l0 0.16 z M58.724000000000004 17.28 l-0.08 0 c0 0.04 0.04 0.04 0.08 0.04 s0.04 0 0.04 -0.04 l-0.04 0 z M33.804 11.079999999999998 c0.04 0.08 0.16 0.08 0.24 0.12 l0.08 -0.04 c-0.04 -0.08 -0.12 -0.08 -0.32 -0.08 z M34.964 11.2 c0 -0.04 -0.04 -0.04 -0.04 -0.04 c-0.04 0 -0.04 0 -0.04 0.04 s0 0.08 0.04 0.08 c0 0 0.04 -0.04 0.04 -0.08 z M37.204 11.16 c0 0 -0.04 0 -0.04 0.04 s0.04 0.08 0.04 0.08 s0.04 -0.04 0.04 -0.08 s-0.04 -0.04 -0.04 -0.04 z M34.324 11.079999999999998 l0.04 0.08 c0.24 0 0.2 -0.08 0.2 -0.2 z M45.564 11.04 l0 0.04 l0.32 0 c-0.12 -0.04 -0.28 -0.04 -0.32 -0.04 z M54.204 11.04 c-0.04 0 -0.08 0 -0.08 0.04 l0.08 0 l0.04 0 c0 -0.04 0 -0.04 -0.04 -0.04 z M57.364000000000004 10.96 l0 0.08 s0 0.04 0.04 0.04 c0 0 0.04 -0.04 0.08 -0.12 l-0.12 0 z M59.884 10.879999999999999 c0.04 0.2 0.12 0.16 0.44 0.16 c-0.12 0 -0.2 -0.16 -0.32 -0.28 c-0.08 0 -0.16 0.04 -0.16 0.08 z M53.884 10.559999999999999 l0 0.4 l0.08 0 c0.04 -0.04 -0.08 -0.24 -0.08 -0.4 z M62.403999999999996 10.16 c0 0.36 0.36 0.36 0.36 0.64 l0.12 0 c0 -0.32 -0.28 -0.36 -0.36 -0.72 c-0.12 0 -0.12 0.04 -0.12 0.08 z M58.084 10.48 c0 0.12 0.08 0.2 0.2 0.24 l0.16 -0.16 c0.48 0 0.24 0.08 0.64 0.08 c0.12 0 0.28 -0.04 0.28 -0.2 c-0.04 0 -0.4 0.04 -0.52 0.04 c-0.08 0 -0.16 -0.04 -0.2 -0.04 s-0.12 0 -0.24 0.04 l-0.2 -0.04 z M36.604 10.559999999999999 c-0.04 0 -0.04 0.04 -0.04 0.08 s0 0.08 0.04 0.08 s0.04 -0.04 0.04 -0.08 s0 -0.08 -0.04 -0.08 z M37.844 10.48 l0 0.08 l0.12 0 l0 -0.08 l-0.12 0 z M61.164 10.559999999999999 l-0.08 0 l0.08 0 z M35.604 10.48 l-0.08 -0.04 l0.08 0.12 l0 -0.08 z M44.604 10.440000000000001 c-0.04 0 -0.08 0 -0.08 0.04 s0.04 0.08 0.08 0.08 s0.04 -0.04 0.04 -0.08 s0 -0.04 -0.04 -0.04 z M46.044 10.399999999999999 l0 0.04 l0.04 0 z M46.284 10.440000000000001 l-0.04 -0.04 c-0.04 0 -0.04 0.04 -0.04 0.04 s0 0.04 0.04 0.04 z M56.604 10.440000000000001 l-0.04 -0.04 c-0.04 0 -0.04 0.04 -0.04 0.04 s0 0.04 0.04 0.04 z M59.924 10.399999999999999 l0 0.04 l0.16 0 c-0.12 -0.04 -0.16 -0.04 -0.16 -0.04 z M34.124 10.399999999999999 c0 -0.04 -0.08 -0.04 -0.16 -0.04 c-0.04 0 -0.08 0 -0.08 0.04 c0 0 0.04 0.04 0.08 0.04 s0.12 0 0.16 -0.04 z M46.924 10.32 c-0.08 0 -0.16 0 -0.2 0.08 l0.2 0 l0 -0.08 z M54.123999999999995 10.32 c0 0 -0.04 0.04 -0.04 0.08 l0.04 0.04 c0.04 0 0.04 -0.04 0.04 -0.04 c0 -0.04 0 -0.08 -0.04 -0.08 z M54.284 10.32 l0 0.08 c0.04 0 0.08 -0.04 0.12 -0.08 l-0.12 0 z M63.248 40.16 c-0.44 0 -0.44 0.04 -0.72 0.04 c-0.08 0 -0.44 -0.32 -0.56 -0.44 c0 0 0.08 -0.6 0.08 -0.72 c1.44 -0.12 2.48 -0.16 3.6 -0.28 c0.12 0 0 -0.76 0.44 -0.76 l0 -0.64 c0.04 0.04 0.08 0.04 0.08 0.04 c0.24 0 0.2 -1.12 0.52 -1.2 c0 -0.08 0.16 -1.44 0.56 -1.76 l0.2 -0.76 s1.36 -4.64 1.88 -4.64 c0.04 0 0.12 0.04 0.16 0.04 c0.2 0 0.24 -0.08 0.24 -0.16 c0 -0.36 -0.32 -0.2 -0.32 -0.48 c0 -0.72 0.72 -2.08 0.8 -2.16 c0.04 -1.64 0.64 -1.24 0.64 -2.28 l0 0.04 c0.04 0 0.36 -1 0.52 -1.12 c0 0.08 0.04 0.08 0.04 0.08 s-0.04 0 -0.04 -0.04 c0 -0.24 0.8 -1.88 0.8 -2.32 c0.2 0 0.24 -0.04 0.24 -0.12 s-0.04 -0.16 -0.04 -0.28 c0 -0.24 0.08 -0.48 0.36 -0.8 l0 0.04 c0.08 0 0.04 -0.88 0.36 -0.88 l0.16 -0.76 l0.24 -0.2 l0 -0.64 l0.32 -0.24 l0 -0.68 s0.24 -0.08 0.24 -0.16 c-0.04 0 -0.08 -0.08 -0.08 -0.12 c0 -0.52 1 -2.04 1 -3.08 l0.2 -0.16 l0 -0.64 c0 0.04 0.04 0.04 0.04 0.04 c0.56 0 -0.2 -2.32 1.88 -2.32 c0.16 0 0.88 0.44 0.88 1.04 c0.16 0.16 -0.16 0.56 0.56 1.88 c0.04 0 1 2.6 1 3.28 c0.36 0 0.12 0.8 1.04 2.72 c0.24 1.08 0.68 1.04 0.68 1.52 l0 -0.04 s0.2 1.28 0.36 1.28 l-0.04 0 c0 0.16 0.96 1.2 0.96 2.44 c0.24 1.16 0.64 0.68 0.64 1.68 l-0.04 -0.04 c0 0.08 0.64 0.92 0.64 1.44 c-0.04 0 -0.08 0 -0.08 0.04 c0 0.16 0.44 0.72 0.44 0.92 c0 0.04 -0.04 0.04 -0.04 0.08 c0 0.08 0.4 0.4 0.4 1.12 c0.16 1.4 0.84 1.48 0.84 2.36 c-0.04 0.08 -0.08 0.12 -0.08 0.16 c0 0.2 0.64 0.2 0.64 1.12 c0 2.28 1.56 2.8 1.56 4.4 c0.16 1.28 0.92 1.72 1.04 1.8 l2.6 0 c0.16 0 0.4 0.12 0.52 0.2 l0 0.72 c-0.16 0.08 -0.28 0.24 -0.92 0.24 c-0.08 0 -2 -0.08 -2.8 -0.08 c-0.36 0 -0.68 0.08 -1 0.08 c-0.04 0 -0.68 -0.08 -0.76 -0.08 c-2.16 0 -3.52 0.12 -4.36 0.12 c-0.04 0 -0.04 -0.12 -0.68 -0.12 c-0.32 0 -0.4 0 -0.56 0.08 c-0.2 0 -0.36 -0.08 -0.44 -0.2 c-0.08 0 -0.24 0.04 -0.24 0.04 l0.08 0.08 l-0.08 0.08 c-1.32 0 -1.44 0 -1.72 -0.24 l0.08 -0.68 c0 -0.08 0.28 -0.24 0.44 -0.24 l3 0 c0.04 0.04 0.32 -0.2 0.32 -0.4 c0 -0.08 -0.64 -0.92 -0.64 -1.4 c0.08 -0.04 0.08 -0.04 0.08 -0.12 c0 -0.2 -0.68 -0.72 -0.68 -1.76 c0.04 0 0.04 0 0.04 -0.04 c0 -0.08 -0.44 -0.4 -0.44 -0.72 c0 -1.44 -0.64 -1.44 -0.64 -2.52 l0 0.04 c-0.08 0 -0.44 -1 -0.8 -1 c-2.68 0 -5.52 0.08 -8.76 0.08 c0 0.16 -0.32 0.24 -0.32 0.68 c-0.6 1.32 -0.68 1.12 -0.68 1.76 c-0.48 0.32 0.04 0.56 -0.52 1.24 c-0.32 2.2 -0.76 0.96 -0.76 2.44 l0 -0.04 c-0.08 0 -0.44 1.04 -0.48 1.04 c0 0.64 0.16 0.64 0.4 0.8 l3.2 0 c0.2 0 0.6 0.04 0.6 0.52 s-0.12 0.72 -0.84 0.72 c-0.12 0 -0.28 -0.08 -0.48 -0.08 c-0.44 0 -0.6 0.08 -0.8 0.08 c-0.08 0 -0.28 -0.08 -0.32 -0.08 l-2.84 0 c-0.08 0.08 -0.16 0.08 -0.24 0.08 c-0.12 0 -0.32 -0.04 -0.48 -0.16 c0 0 0.08 -0.08 0.08 -0.16 l-0.12 0 c-0.08 0 -0.12 0 -0.12 0.08 l0.04 0.08 c-0.04 0.16 -0.08 0.16 -0.32 0.16 c0 -0.52 0 -0.4 0.12 -0.56 c-0.04 -0.16 0.04 -0.36 -0.08 -0.44 c0 0.28 -0.12 0.48 -0.36 0.64 c0 0.08 0.12 0.16 0.2 0.2 c-0.16 0 -0.6 0.2 -0.68 0.32 c-0.72 0 -0.64 -0.16 -1.08 -0.16 z M62.928 39.84 l0 0.08 l0.2 0 c-0.12 -0.08 -0.16 -0.08 -0.2 -0.08 z M63.608000000000004 39.92 c0 -0.04 -0.04 -0.04 -0.08 -0.04 s-0.08 0 -0.08 0.04 s0.04 0.08 0.08 0.08 s0.08 -0.04 0.08 -0.08 z M63.848 39.84 c-0.04 0 -0.08 0.04 -0.08 0.08 s0.04 0.08 0.08 0.08 s0.04 -0.04 0.04 -0.08 s0 -0.08 -0.04 -0.08 z M64.728 39.76 c-0.24 0 -0.56 0.08 -0.64 0.16 c0.68 0 0.48 -0.04 0.64 -0.16 z M66.048 39.8 c0 0.04 0.32 0.08 0.36 0.12 l0.08 -0.08 c-0.2 -0.04 -0.4 -0.04 -0.44 -0.04 z M69.008 39.84 c0.52 0 1.32 0.08 1.52 0.08 c-0.44 0 -0.44 -0.44 -0.48 -0.64 c0.04 0 -0.32 0.08 -0.32 0.32 c-0.08 0 -0.04 -0.24 -0.36 -0.24 c0 0.28 -0.16 0.36 -0.36 0.48 z M70.848 39.84 l0.08 0.08 c0.04 0 0.28 -0.08 0.36 -0.08 l-0.44 0 z M65.328 39.8 c-0.04 0 -0.08 0.04 -0.08 0.08 c0 0 0.04 0.04 0.08 0.04 s0.04 -0.04 0.04 -0.04 c0 -0.04 0 -0.08 -0.04 -0.08 z M68.488 39.84 c0 0 -0.08 -0.04 -0.12 -0.04 c-0.08 0 -0.08 0.04 -0.08 0.04 c0 0.04 0 0.08 0.08 0.08 c0.04 0 0.12 -0.04 0.12 -0.08 z M78.328 39.76 c0.04 0.04 0.16 0.08 0.2 0.08 s0.24 -0.04 0.32 -0.08 l0 -0.48 s-0.08 -0.04 -0.12 -0.04 c-0.36 0 -0.4 0.08 -0.4 0.24 l0 0.28 z M89.168 39.8 c0.12 0 0.16 0.04 0.36 0.04 c0.04 0 0.24 -0.04 0.36 -0.04 l-0.72 0 z M91.088 39.8 l0 0.04 l0.04 -0.04 l-0.04 0 z M79.44800000000001 39.76 l-0.08 0.04 l0.12 0.04 z M82.44800000000001 39.76 c-0.04 0 -0.08 0.04 -0.08 0.04 s0.04 0.04 0.08 0.04 s0.04 -0.04 0.04 -0.04 s0 -0.04 -0.04 -0.04 z M87.928 39.76 c0.04 0.04 0.08 0.04 0.2 0.04 l0.76 0 c-0.04 -0.04 -0.12 -0.08 -0.2 -0.12 c-0.08 0.08 -0.2 0.08 -0.24 0.08 c-0.36 0 -0.28 -0.28 -0.36 -0.28 z M62.288000000000004 39.48 c0 0.24 0 0.2 0.08 0.28 l0.52 0 l0 -0.68 c-0.56 0.28 -0.6 0.16 -0.6 0.4 z M70.72800000000001 39.56 l0 0.2 c0.08 0 0.12 -0.08 0.12 -0.08 c-0.04 -0.24 -0.16 -0.24 -0.16 -0.44 c-0.16 0 -0.24 0.08 -0.24 0.12 c0.04 0.08 0.08 0.2 0.28 0.2 z M90.288 39.68 c-0.04 0 -0.04 0.04 -0.04 0.08 s0 0.04 0.04 0.04 s0.04 0 0.04 -0.04 s0 -0.08 -0.04 -0.08 z M63.368 39.24 c0 0.32 -0.04 0.4 -0.12 0.44 c0.24 0 0.44 0 0.44 -0.24 s-0.04 -0.2 -0.32 -0.2 z M67.608 39.6 l0 0.08 l0.08 0 z M68.328 39.44 l0.08 0.04 l0 -0.12 z M70.928 39.16 c0 0.04 0 0.12 0.04 0.12 c0 0 0.16 0 0.16 -0.12 c0 -0.08 -0.08 -0.08 -0.16 -0.12 c-0.04 0.04 -0.04 0.08 -0.04 0.12 z M89.208 39.24 c0 0.04 0.08 0.04 0.12 0.04 c0 -0.2 0 -0.2 -0.08 -0.24 c0 0 -0.04 0.12 -0.04 0.2 z M90.968 38.96 c-0.2 0.04 -0.16 0.12 -0.16 0.32 l0.32 -0.2 c0 -0.04 -0.12 -0.08 -0.16 -0.12 z M87.928 39.08 c-0.04 0 -0.08 0.04 -0.08 0.04 c0 0.04 0.04 0.04 0.08 0.04 s0.04 0 0.04 -0.04 c0 0 0 -0.04 -0.04 -0.04 z M65.968 38.96 l0 0.12 l0.08 -0.12 l-0.08 0 z M66.088 38.36 c0 0.04 0.04 0.6 0.4 0.6 c-0.08 -0.04 -0.2 -0.4 -0.2 -0.6 l0.08 -0.24 l-0.08 -0.08 c-0.16 0 -0.2 0.24 -0.2 0.32 z M67.568 36.48 c-0.12 0.08 -0.28 0.32 -0.28 0.64 c0.04 0.04 0.08 0.04 0.08 0.04 c0.16 0 0.2 -0.24 0.24 -0.36 c0 -0.04 -0.04 -0.36 -0.04 -0.32 z M67.368 35.44 c0 -0.04 -0.04 -0.04 -0.04 -0.04 c-0.04 0 -0.04 0 -0.04 0.04 s0 0.04 0.04 0.04 c0 0 0.04 0 0.04 -0.04 z M68.488 32.56 c-0.04 0 -0.08 0.04 -0.08 0.04 s0.04 0.04 0.08 0.04 l0.04 -0.04 z M79.848 32 c-0.04 0 -0.04 0.04 -0.04 0.08 s0 0.08 0.04 0.08 s0.04 -0.04 0.04 -0.08 s0 -0.08 -0.04 -0.08 z M68.848 31.68 c-0.04 0 -0.04 0.04 -0.04 0.08 s0 0.08 0.04 0.08 s0.04 -0.04 0.04 -0.08 s0 -0.08 -0.04 -0.08 z M68.848 30.84 c-0.04 0 -0.04 0.04 -0.04 0.04 c0 0.04 0 0.04 0.04 0.04 s0.04 0 0.04 -0.04 c0 0 0 -0.04 -0.04 -0.04 z M70.688 29.2 c0.12 0.48 0.16 0.52 0.44 0.68 c0.48 0 1.8 -0.08 5.44 -0.08 c0.32 0 0.48 0.12 1.28 0.12 c0.4 0 0.8 -0.12 0.8 -0.56 c0 -0.2 -0.52 -0.96 -0.52 -1.36 l0.04 0 c0 -0.08 -0.44 -0.44 -0.44 -0.88 c0 -1.48 -0.76 -1.32 -0.76 -2.24 c0.04 0.04 0.04 0.08 0.04 0.08 c-0.04 0 -0.76 -1.32 -0.76 -2.08 c0 -0.52 -0.72 -1.28 -0.72 -2.16 l0.04 0 c0 -0.08 -0.44 -0.48 -0.44 -0.96 c-0.36 -0.84 -0.4 -0.76 -0.72 -0.76 c-1.16 2.76 -1.08 2.8 -1.44 3.48 c0 -0.08 -0.04 1.28 -0.56 1.48 l0 -0.08 c-0.04 0 -0.44 2.28 -0.84 2.64 c0 0.52 -0.88 1.2 -0.88 2.68 z M69.888 28.08 c-0.04 0 -0.08 0.04 -0.08 0.08 s0.04 0.08 0.08 0.08 s0.04 -0.04 0.04 -0.08 s0 -0.08 -0.04 -0.08 z M70.80799999999999 25.439999999999998 c-0.04 0 -0.08 0.04 -0.08 0.08 c0 0 0.04 0.04 0.08 0.04 l0 -0.12 z M72.488 23.08 l0 0.04 l0.04 0 z M72.328 22.44 c-0.04 0 -0.08 0.04 -0.08 0.08 l0.08 0 l0.04 0 c0 -0.04 0 -0.08 -0.04 -0.08 z M72.488 21.4 c-0.04 0 -0.08 0.04 -0.08 0.04 c0 0.04 0.04 0.08 0.08 0.08 c0 0 0.04 -0.04 0.04 -0.08 z M73.568 18.68 c0 -0.04 -0.04 -0.04 -0.04 -0.04 c-0.04 0 -0.04 0 -0.04 0.04 s0 0.08 0.04 0.08 c0 0 0.04 -0.04 0.04 -0.08 z M73.688 18.56 l-0.04 0 c0 0.04 0.04 0.04 0.04 0.04 s0.04 0 0.04 -0.04 l-0.04 0 z M78.048 15.760000000000002 c-0.04 0 -0.04 0.04 -0.04 0.08 s0 0.08 0.04 0.08 s0.04 -0.04 0.04 -0.08 s0 -0.08 -0.04 -0.08 z M77.288 10.2 c0 0 -0.04 0.04 -0.04 0.08 l0.08 0 c0 -0.04 0 -0.08 -0.04 -0.08 z M76.248 10.120000000000001 c-0.04 0 -0.04 0.04 -0.04 0.08 s0 0.08 0.04 0.08 s0.04 -0.04 0.04 -0.08 s0 -0.08 -0.04 -0.08 z M76.568 10.120000000000001 l0.16 0.08 c0.32 0 0.2 0 0.32 -0.08 l-0.12 -0.16 c-0.16 0 -0.24 0.16 -0.36 0.16 z M99.41199999999999 38.84 c-0.36 0 -0.56 0.08 -0.8 0.12 c-0.36 0 -0.28 0 -0.32 -0.04 l-0.12 0.04 c0 0.12 0.04 0.12 0.12 0.16 c0 -0.04 -0.12 0.08 -0.2 0.24 l0.04 0 c0 0.04 -1.28 1.04 -1.48 1.04 c-0.92 0 -0.92 -1.08 -0.92 -1.24 c0 -0.08 0 -0.08 0.04 -0.2 c0 -4.48 -0.2 -3.8 -0.2 -6.48 c0 0 0.04 -0.04 0.04 -0.08 c0 -0.12 -0.08 -0.32 -0.08 -0.52 c0 -0.36 0.16 -0.6 1.2 -0.6 c0.12 0 0.28 0.12 0.64 0.76 c0 0.2 0.72 0.8 0.8 1.16 c-0.04 0.04 -0.08 0.08 -0.08 0.12 c0 0.16 0.6 0.4 0.6 0.64 c0 0.04 -0.04 0.08 -0.04 0.08 c0 0.24 0.4 0.44 0.4 0.56 c0.48 0.88 0.52 0.84 1.16 1.48 c0.2 0 1.68 2.64 2.8 2.64 c1.44 0.12 1.72 0.64 3.24 0.64 c0.84 0 0.72 -0.04 1 -0.2 c-0.08 0.08 -0.04 0.08 -0.08 0.08 c0 0 0.28 -0.4 1.6 -0.4 c0.6 0 1.76 -1.12 2 -1.28 c0.08 -0.08 0.48 -0.24 0.48 -0.32 c0 -0.24 0.84 -1.4 0.96 -1.52 c-0.04 -0.08 -0.04 -0.16 -0.04 -0.2 c0 -0.6 0.64 0.32 0.64 -3.4 c-0.04 -0.12 -0.16 -1.4 -0.44 -1.64 c-0.12 0 -0.12 -0.92 -1.08 -1.56 c0 -0.04 0.04 -0.24 0.04 -0.32 c-1.56 -0.08 -0.76 -0.88 -1.8 -0.88 c-1.96 0 -0.4 -0.6 -2.52 -0.6 c-0.2 -0.2 -1.96 -0.16 -2.36 -0.4 c-0.08 0 -0.36 0.08 -0.44 0.08 c-0.48 0 -0.08 -0.4 -1.16 -0.4 c-3.64 -0.2 -1.68 -0.88 -2.92 -0.88 l0 -0.08 c0.12 0 0.28 -0.04 0.4 0.08 c0 0 0.2 -0.08 0.2 -0.12 c0 0 -0.08 -0.08 -0.08 -0.12 l-1.24 0 c-0.4 -0.36 -0.36 -0.6 -0.68 -0.68 c0 -0.04 -0.44 0.04 -1.12 -0.88 c0 -0.28 -0.88 -1.32 -1.08 -1.48 c-0.36 -1.88 -0.8 -3 -0.8 -4.44 c0.08 -0.44 0 -1 0.16 -1.28 l0 0.04 c0.04 0 0.2 -1.36 0.32 -1.28 c-0.04 0 -0.08 -0.04 -0.08 -0.08 c0 -0.32 0.84 -1.2 0.84 -1.52 c-0.04 -0.04 -0.04 -0.08 -0.04 -0.08 c0 -0.28 0.64 -0.56 0.64 -0.68 s0.52 -0.96 0.76 -1.12 c-0.04 0.04 -0.04 0.08 -0.04 0.08 c-0.04 0 1.96 -1.32 2 -1.36 c2.44 -0.4 0.32 -1.08 3.04 -1.08 l3.92 0 c0.08 0 0.92 0 1.32 0.32 c1.64 0.08 1.36 1.04 2.08 1.04 c1.32 0 0.96 -0.08 1.36 -0.48 c-0.16 -0.2 1.08 -0.04 1.2 -0.56 l0.52 0 c0.08 0 0.4 0.32 0.44 0.4 c0.12 4.96 0.36 4.84 0.36 7.44 c0 0.2 -0.36 0.32 -0.52 0.64 l-0.56 0 l0 -0.16 c-0.12 0 -0.96 -0.56 -0.96 -1 l0 0.04 c-0.04 0 -0.32 -1 -0.76 -1.16 l0.04 0 c0 -0.12 -0.52 -0.52 -0.52 -0.8 c-0.6 -0.88 -0.52 -0.84 -1 -1.32 l0.04 0 c0 -0.04 -1 -0.64 -1 -0.92 c0 -0.6 -1.48 -1.32 -1.8 -1.64 c0.12 -0.24 -1.04 -0.56 -2.2 -0.56 c-0.04 0 -0.08 0.04 -0.12 0.04 c-0.4 0 -0.24 -0.68 -0.36 -0.68 c-0.08 0.08 -0.12 0.08 -0.16 0.16 c-0.04 0 -0.2 -0.04 -0.32 -0.08 c-0.24 0.88 -0.64 0.4 -0.76 0.64 c-0.24 -0.12 -0.08 -0.24 -0.24 -0.28 c-0.84 0.4 -0.6 0.36 -2.44 1.28 c-1.2 2.36 -0.56 -0.56 -1.88 3.04 l0 1.76 l0 -0.04 c0.04 0 0.2 1.56 0.56 1.76 c0.08 0.12 0.6 0.52 0.76 0.84 c0.28 0 0.64 1.04 1.8 1.04 c0.48 0.52 2.36 0.4 4.28 0.88 c0.56 0.16 3.48 0.16 4.16 0.96 l-0.04 0 c0 0.08 0.96 0.16 1.12 0.28 c0 -0.08 1.92 1.12 1.92 1.36 c0 0.04 0 0.04 -0.04 0.04 c0.68 0 1.36 1.52 1.64 1.72 c0.2 1.44 0.76 1 0.76 2.12 c0.48 1.52 0.4 1.88 0.4 3.76 c-0.12 0.12 -0.2 1.52 -0.4 1.6 c0 2.04 -1.04 1.92 -1.04 2.8 l-0.52 0.48 c0 0.08 -0.04 0.24 -0.04 0.24 c-0.8 0.72 -0.52 0.84 -0.88 1 c-0.12 0 -0.32 0.6 -1 0.8 c-0.76 1.16 -1.08 0.24 -1.88 1.4 c-3.6 0 0.08 0.88 -3.92 0.88 c-4.56 0 -2.96 -0.12 -4.44 -0.48 c-0.04 0 -0.04 0.04 -0.08 0.04 c-0.24 0 -0.6 -0.32 -0.92 -0.32 c0 -0.04 -0.6 -0.12 -0.6 -0.2 c0 0.04 0.04 0.04 0.04 0.04 c0 -0.04 -0.56 -0.84 -1 -0.84 c-0.08 0 -0.16 0.04 -0.24 0.08 z M107.012 40.28 c-0.04 0 -0.04 0.04 -0.04 0.08 c0 0 0 0.04 0.04 0.04 s0.04 -0.04 0.04 -0.04 c0 -0.04 0 -0.08 -0.04 -0.08 z M104.012 40.2 c-0.04 0 -0.04 0.04 -0.04 0.04 c0 0.04 0 0.04 0.04 0.04 s0.04 0 0.04 -0.04 c0 0 0 -0.04 -0.04 -0.04 z M107.812 40.2 c-0.04 0 -0.08 0.04 -0.08 0.08 s0.04 0.08 0.08 0.08 s0.04 -0.04 0.04 -0.08 s0 -0.08 -0.04 -0.08 z M106.932 40.12 c-0.04 0 -0.08 0.04 -0.08 0.08 s0.04 0.08 0.08 0.08 s0.04 -0.04 0.04 -0.08 s0 -0.08 -0.04 -0.08 z M107.812 40.04 c-0.08 0 -0.12 0 -0.12 0.04 l0.04 0.04 l0.08 0 l0 -0.08 z M104.892 40.04 c-0.04 0 -0.04 0 -0.04 0.04 c0 0 0 0.04 0.04 0.04 s0.04 -0.04 0.04 -0.04 c0 -0.04 0 -0.04 -0.04 -0.04 z M107.812 39.76 l0 0.2 c0.08 -0.04 0.16 -0.12 0.2 -0.2 l-0.2 0 z M108.892 39.64 c-0.36 0 -0.36 0.12 -0.36 0.24 c0.04 0 0.12 -0.04 0.2 -0.08 c0.04 0 0.16 0.04 0.24 0.08 l0.16 -0.08 s0 -0.16 -0.24 -0.16 z M104.13199999999999 39.68 l0 0.08 l0.16 0 l0 -0.08 l-0.16 0 z M106.13199999999999 39.68 c-0.04 0 -0.04 0.04 -0.04 0.08 c0 0 0 0.04 0.04 0.04 s0.04 -0.04 0.04 -0.04 c0 -0.04 0 -0.08 -0.04 -0.08 z M107.252 39.68 c-0.04 0 -0.08 0.04 -0.08 0.08 c0 0 0.04 0.04 0.08 0.04 s0.04 -0.04 0.04 -0.04 c0 -0.04 0 -0.08 -0.04 -0.08 z M103.572 39.44 c-0.04 0 -0.08 0 -0.08 0.04 l0.08 0 l0.04 0 c0 -0.04 0 -0.04 -0.04 -0.04 z M102.332 39.32 c-0.04 0 -0.08 0 -0.12 0.04 z M102.21199999999999 39.16 c-0.04 0 -0.08 0.04 -0.08 0.08 s0.04 0.08 0.08 0.08 s0.04 -0.04 0.04 -0.08 s0 -0.08 -0.04 -0.08 z M102.332 39.12 c-0.04 0 -0.04 0.04 -0.04 0.08 c0 0 0 0.04 0.04 0.04 s0.04 -0.04 0.04 -0.04 c0 -0.04 0 -0.08 -0.04 -0.08 z M96.612 39.04 c-0.04 0 -0.08 0.04 -0.08 0.08 c0 0 0.04 0.04 0.08 0.04 l0.04 -0.04 c0 -0.04 -0.04 -0.08 -0.04 -0.08 z M102.21199999999999 39.04 c-0.04 0 -0.08 0.04 -0.08 0.08 c0 0 0.04 0.04 0.08 0.04 s0.04 -0.04 0.04 -0.04 c0 -0.04 0 -0.08 -0.04 -0.08 z M96.05199999999999 38.92 c-0.04 0 -0.08 0.04 -0.08 0.04 c0 0.04 0.04 0.08 0.08 0.08 c0 0 0.04 -0.04 0.04 -0.08 z M102.532 38.96 l-0.08 0 c0 0.04 0 0.08 0.04 0.08 c0 0 0.04 -0.04 0.04 -0.08 z M110.372 38.92 c-0.04 0 -0.04 0.04 -0.04 0.04 l0.08 0 c0 0.04 0 -0.04 -0.04 -0.04 z M96.05199999999999 38.24 l0 -0.16 l0 0.16 z M112.21199999999999 38.16 c-0.04 0 -0.08 0.04 -0.08 0.08 l0.12 0 c0 -0.04 -0.04 -0.08 -0.04 -0.08 z M112.77199999999999 37.68 l0 0.08 l0.04 0 z M112.652 37.56 c-0.04 0 -0.08 0.04 -0.08 0.08 c0 0 0.04 0.04 0.08 0.04 s0.04 -0.04 0.04 -0.04 c0 -0.04 0 -0.08 -0.04 -0.08 z M112.892 37.6 l0.08 -0.04 z M113.132 37.36 l0 0 l-0.08 0.08 c0.04 -0.04 0.04 -0.08 0.08 -0.08 z M96.172 37.32 c-0.04 0 -0.08 0 -0.08 0.04 c0 0 0.08 0 0.08 -0.04 l0 0 z M96.05199999999999 36.92 l0 0.24 l0.04 0 c0 -0.04 0 -0.2 -0.04 -0.24 z M114.372 36.04 c-0.04 0 -0.04 0.04 -0.04 0.04 s0 0.04 0.04 0.04 s0.04 -0.04 0.04 -0.04 s0 -0.04 -0.04 -0.04 z M113.132 32.76 l0.08 0.04 l0.08 -0.04 l-0.16 0 z M96.05199999999999 32.12 l-0.08 0 c0 0.04 0 0.08 0.04 0.08 c0 0 0.04 -0.04 0.04 -0.08 z M115.972 31.439999999999998 l0 -0.04 c-0.04 0 -0.04 0 -0.04 0.04 s0 0.08 0.04 0.08 l0 -0.08 z M99.172 24.68 c-0.04 0 -0.08 0.04 -0.08 0.08 s0.04 0.08 0.08 0.08 s0.04 -0.04 0.04 -0.08 s0 -0.08 -0.04 -0.08 z M97.532 22.96 c-0.04 0 -0.08 0.04 -0.08 0.08 c0 0 0.04 0.04 0.08 0.04 l0.04 -0.04 c0 -0.04 -0.04 -0.08 -0.04 -0.08 z M110.372 22.56 c-0.04 0 -0.04 0.04 -0.04 0.08 c0 0 0 0.04 0.04 0.04 s0.04 -0.04 0.04 -0.04 c0 -0.04 0 -0.08 -0.04 -0.08 z M97.05199999999999 22.4 l0 0.08 l0.08 -0.08 l-0.08 0 z M100.852 22.04 c0 0 -0.04 0 -0.04 0.04 l0.08 0 c0 -0.04 -0.04 -0.04 -0.04 -0.04 z M104.812 21.52 c-0.08 0 -0.28 0.08 -0.28 0.12 s0.04 0.04 0.04 0.04 c0.08 0 0.16 -0.08 0.24 -0.16 z M96.292 20.36 c-0.04 0 -0.08 -0.04 -0.08 0.2 c0 0.04 0.04 0.12 0.04 0.12 c0.04 0 0.08 -0.08 0.08 -0.12 c0 -0.08 -0.04 -0.16 -0.04 -0.2 z M96.172 19.96 c-0.04 0 -0.08 0.04 -0.08 0.08 s0.04 0.08 0.08 0.08 l0 -0.16 z M113.292 12.920000000000002 c-0.04 0 -0.08 0.04 -0.08 0.08 c0 0 0.04 0.04 0.08 0.04 s0.04 -0.04 0.04 -0.04 c0 -0.04 0 -0.08 -0.04 -0.08 z M113.852 12.920000000000002 c-0.04 0 -0.04 0.04 -0.04 0.08 c0 0 0 0.04 0.04 0.04 s0.04 -0.04 0.04 -0.04 c0 -0.04 0 -0.08 -0.04 -0.08 z M114.012 12.920000000000002 c-0.04 0 -0.08 0.04 -0.08 0.08 c0 0 0.04 0.04 0.08 0.04 l0.04 -0.04 c0 -0.04 -0.04 -0.08 -0.04 -0.08 z M105.05199999999999 12.04 l0 -0.44 c0.04 -0.04 0.12 -0.08 0.16 -0.12 l0.08 0.08 c0 0.12 -0.16 0.32 -0.16 0.56 z M113.852 11.879999999999999 c-0.04 0 -0.04 0.04 -0.04 0.08 c0 0 0 0.04 0.04 0.04 s0.04 -0.04 0.04 -0.04 c0 -0.04 0 -0.08 -0.04 -0.08 z M100.732 11.68 c-0.2 0.04 -0.2 0.2 -0.2 0.2 c0.04 -0.04 0.2 -0.12 0.2 -0.16 l0 -0.04 z M99.77199999999999 11.48 c0 0.08 0.12 0.12 0.2 0.12 c-0.04 -0.12 -0.2 -0.12 -0.24 -0.12 l0.04 0 z M113.692 11.559999999999999 c0.04 0.04 0.08 0.04 0.12 0.04 c0.16 0 0.2 -0.12 0.2 -0.24 z M100.41199999999999 11.239999999999998 c-0.12 0 -0.08 0.12 -0.08 0.24 l0.08 0 l0 -0.24 z M108.332 10.879999999999999 c-0.12 0.2 -0.08 0.36 -0.08 0.52 c0.16 -0.04 0.2 -0.24 0.2 -0.44 c-0.04 -0.04 -0.04 -0.08 -0.12 -0.08 z M100.41199999999999 11.04 c-0.04 0 -0.08 0 -0.08 0.04 l0.08 0 l0.04 0 c0 -0.04 0 -0.04 -0.04 -0.04 z M113.292 10.96 c0 -0.04 -0.04 -0.04 -0.12 -0.04 c-0.04 0 -0.08 0 -0.08 0.04 s0.04 0.08 0.08 0.08 c0.08 0 0.12 -0.04 0.12 -0.08 z M113.452 10.84 c-0.04 0 -0.08 0.04 -0.08 0.04 l0.04 0 l0.04 0 l0 -0.04 z M109.49199999999999 10.84 l-0.04 -0.04 z M107.012 10.8 c0 -0.04 -0.04 -0.04 -0.04 -0.04 s-0.04 0 -0.04 0.04 s0.04 0.04 0.04 0.04 s0.04 0 0.04 -0.04 z M112.452 10.8 c0 -0.04 -0.04 -0.04 -0.04 -0.04 c-0.04 0 -0.04 0 -0.04 0.04 s0 0.04 0.04 0.04 c0 0 0.04 0 0.04 -0.04 z M112.972 10.719999999999999 c-0.04 0 -0.08 0.04 -0.08 0.08 c0 0 0.04 0.04 0.08 0.04 s0.04 -0.04 0.04 -0.04 c0 -0.04 0 -0.08 -0.04 -0.08 z M113.852 10.64 l0 0.16 l0.08 -0.08 z M101.692 10.32 c0 0.12 0.08 0.28 0.08 0.4 l0.08 -0.2 s-0.04 -0.16 -0.08 -0.28 z M108.732 10.48 c-0.04 0 -0.08 0.04 -0.08 0.04 s0.04 0.04 0.08 0.04 s0.04 -0.04 0.04 -0.04 s0 -0.04 -0.04 -0.04 z M113.092 10.239999999999998 c-0.12 0.04 -0.16 0.16 -0.2 0.28 c0.24 0 0.2 -0.12 0.2 -0.28 z M113.852 10.48 l0 0.04 l0.08 0 z M113.852 10.239999999999998 c-0.04 0 -0.04 0.04 -0.04 0.04 c0 0.04 0 0.04 0.04 0.04 s0.04 0 0.04 -0.04 c0 0 0 -0.04 -0.04 -0.04 z M105.49199999999999 10.079999999999998 c-0.04 0.12 0.2 0.16 0.2 0.16 c0.08 -0.12 0.48 0.04 0.44 -0.16 l-0.64 0 z M108.012 10.16 l-0.08 0 c0 0.04 0 0.08 0.04 0.08 c0 0 0.04 -0.04 0.04 -0.08 z M103.252 10 l0 0.08 l0.16 0 l0 -0.08 l-0.16 0 z M104.012 9.920000000000002 c-0.12 0 -0.28 0.12 -0.32 0.16 l0.32 0 l0 -0.16 z M107.012 10 l0 0.08 l0.24 0 z"/></g><g id="SvgjsG62980" featureKey="inlineSymbolFeature-0" transform="matrix(0.710215435164166,0,0,0.710215435164166,139.7623091342001,5.873624239171265)" fill="#000"><path xmlns="http://www.w3.org/2000/svg" fill-rule="evenodd" clip-rule="evenodd" d="M67.55,24.7h0.05c0.267,0,0.467,0.133,0.601,0.4c0.066,0.133,0.133,0.233,0.2,0.3  c0-0.333,0.1-0.75,0.3-1.25c0.133-0.867,0.483-1.917,1.05-3.15c1.434-2.5,2.7-2.5,3.8,0c0.134,0.533,0.3,1.317,0.5,2.35  c0.2,1.233,0.101,2.783-0.3,4.65c-0.4,1.9-0.917,3.467-1.55,4.7c-0.066,0.2-0.167,0.45-0.3,0.75c-0.134,0.133-0.233,0.267-0.301,0.4  c-0.133,0.333-0.267,0.633-0.399,0.9c-0.767,1.467-1.934,3.567-3.5,6.3c-0.367,0.733-0.816,1.517-1.351,2.35  c-0.066,0.333-0.199,0.617-0.399,0.85c-0.233,0.467-0.483,0.934-0.75,1.4c-0.134,1.533-0.334,3.116-0.601,4.75  c-0.066,0.633-0.1,1.699-0.1,3.199s-0.033,2.567-0.1,3.2c-0.134,1.101-0.384,1.917-0.75,2.45c-0.467,0.7-1.184,1.017-2.15,0.95  c-0.467,0-2.083-0.316-4.85-0.95c-2.601-0.767-4.384-1.15-5.351-1.15c-0.267,0-0.566,0.084-0.899,0.25  c-0.4,0-0.784,0.101-1.15,0.301v0.6c6.033,2.533,10.8,5.134,14.3,7.8c5.101,3.867,7.65,7.816,7.65,11.851  c0,1.366-0.55,2.5-1.65,3.399c-1.033,0.9-2.684,1.65-4.95,2.25c-4.066,0.967-10.449,1.617-19.149,1.95  c-8.767,0.134-13.3-0.483-13.6-1.85c-0.2-1.434-1.383-2.417-3.55-2.95c-2.133-0.434-5.333-0.334-9.6,0.3  c-4.4,0.6-6.25,0.283-5.55-0.95c0.633-1.3,1.934-2.366,3.9-3.2c1.934-0.866,3.483-1.85,4.65-2.949c1.1-0.9,1.95-1.417,2.55-1.551  c0.7-0.199,1.183-0.166,1.45,0.101c0.333,0.133,0.783,0.616,1.35,1.45c0.6,0.8,1.417,1.283,2.45,1.449  c1.033,0.067,1.55-0.083,1.55-0.449c0-0.4-0.033-0.733-0.1-1c-0.567-0.434-1.05-0.983-1.45-1.65c-0.533-0.767-0.983-1.733-1.35-2.9  c-0.533-1.3-0.867-2.283-1-2.949c-0.7-2-1.283-4.334-1.75-7c-0.4-2.601-0.6-5.084-0.6-7.45c0-4.867,1.017-10.25,3.05-16.15  c1.733-5.466,4.167-10.733,7.3-15.8c2.9-4.9,5.95-8.883,9.15-11.95c3.233-3.1,6.084-4.65,8.55-4.65c1.733,0,3.384,0.417,4.95,1.25  c1.233,0.7,2.5,1.733,3.8,3.1c0.834,0.867,2.034,2.167,3.601,3.9c1.5,1.5,2.883,2.7,4.149,3.6v0.1c-2.433,0.633-4.85,1.45-7.25,2.45  c-2.866,1.233-5.433,2.65-7.699,4.25c-0.967,0.733-1.884,1.483-2.75,2.25c-3.867,3.633-5.867,7.75-6,12.35c0,0.067,0,0.133,0,0.2  l0.1-0.2c0.434-2.333,1.2-4.383,2.3-6.15c0.934-1.733,2.2-3.217,3.8-4.45l0.4,3.4c0.134,0.7,0.616,2.283,1.45,4.75  c0.733,2.3,1.1,3.6,1.1,3.9c0,0.066-0.233,0.3-0.7,0.7c-0.566,0.567-1.149,1.117-1.75,1.65c-1.699,1.867-2.833,3.717-3.399,5.55v0.1  c0.633-0.8,1.149-1.483,1.55-2.05c0.6-0.667,1.184-1.316,1.75-1.95c-0.066,0.533,0.033,1.217,0.3,2.05  c0.267-0.601,0.5-1.083,0.7-1.45c0.434-0.967,1.033-1.784,1.8-2.45c0.667-0.333,1.483-0.783,2.45-1.35  c1.1-0.733,1.917-1.25,2.45-1.55c2-1.233,3.649-2.733,4.95-4.5c0.333,0,0.566,0.233,0.699,0.7v0.3  c0.067,0.167,0.101,0.65,0.101,1.45c0,0.267,0,0.483,0,0.65c0.033-0.1,0.116-0.25,0.25-0.45c0.066-0.2,0.2-0.4,0.399-0.6  c0-0.133,0.034-0.233,0.101-0.3c0.2-0.333,0.366-0.617,0.5-0.85c0.066-0.267,0.1-0.567,0.1-0.9c0-0.133,0-0.267,0-0.4  c0-0.367-0.166-0.75-0.5-1.15c-0.333-0.566-0.5-1.083-0.5-1.55c0-0.4,0.233-1.4,0.7-3C67.283,25.917,67.55,24.9,67.55,24.7z   M63.35,22c-0.199,0.967-0.3,1.583-0.3,1.85c0,0.2,0.066,0.417,0.2,0.65c0,0.333,0,0.6,0,0.8c0,0.067-0.066,0.167-0.2,0.3  c-0.133,0.133-0.267,0.2-0.399,0.2c-0.2,0-0.384-0.066-0.551-0.2c-0.333-0.133-0.566-0.2-0.699-0.2c-0.2,0-0.367,0.1-0.5,0.3  c0,0.2,0,0.383,0,0.55v0.2c-0.367,0-0.684,0-0.95,0v0.4c-0.066,0.2-0.134,0.333-0.2,0.4c-0.533-0.067-0.95,0.033-1.25,0.3  c-0.2,0.133-0.4,0.383-0.6,0.75c-0.2,0.4-0.4,0.667-0.601,0.8c-0.267,0.267-0.649,0.4-1.149,0.4c-0.467,0-0.851-0.167-1.15-0.5  c-0.333-0.4-0.733-1.05-1.2-1.95c-0.133-0.133-0.45-0.433-0.95-0.9c1.233-1.1,2.5-2,3.801-2.7c2.833-1.633,5.316-2.9,7.449-3.8  C63.866,20.117,63.616,20.9,63.35,22z"/></g><g id="SvgjsG62981" featureKey="nameRightFeature-0" transform="matrix(1.1583010900607258,0,0,1.1583010900607258,192.08803333956843,18.06563930051123)" fill="#000"><path d="M21.604000000000003 38.88 l0.64 0 l-0.08 0.08 c0.68 0.08 1.2 0.12 2.2 0.12 c0.52 -1.64 0.24 -4.4 0.36 -4.44 c0 -1.4 -0.12 -2.8 -0.12 -4.16 c0 -0.08 0.08 -0.16 0.08 -0.52 c0 -0.16 -0.04 -0.72 -0.08 -0.56 c0 -0.08 0.08 -0.28 0.08 -0.48 c0 -0.52 -0.04 -2.56 -0.04 -8.72 c0 -0.2 0.04 -0.28 0.04 -0.56 c0 -0.44 -0.04 -1.2 -0.04 -1.28 c0 -2 0.08 -3.6 0.08 -4.96 c0 -1.12 -0.08 -1.92 -0.44 -2.04 c-1.96 0 -2.4 0.08 -2.76 0.08 c-0.08 0 -0.88 0.16 -0.88 -0.56 c0 -0.88 0.24 -0.64 0.44 -0.92 l10.24 0 c0.08 0 0.16 -0.08 0.24 -0.08 c3.92 0 8.92 0.52 9.08 1.08 c0 -0.04 0.04 -0.04 0.04 -0.04 c0.12 0 0.28 0.52 1.2 0.52 c0.04 0 0.04 -0.04 0.08 -0.04 c0.12 0 0.12 0.4 0.88 0.68 c0 -0.04 0.04 -0.04 0.04 -0.04 c0.16 0 0.44 0.84 0.68 0.84 c-0.08 0.08 1.16 0.48 1.16 1.4 c0.08 1 0.72 0.52 0.72 2.44 c0 1.12 -0.12 1.72 -0.12 2.04 c0 0.08 0 0.12 0.04 0.16 c-0.24 0.2 -0.24 1.04 -0.48 1.08 c0 0.84 -1.12 1.32 -1.32 1.88 c0 0.48 -0.64 0.4 -1.56 1.32 c-0.04 -0.04 -0.04 -0.04 -0.08 -0.04 c-0.2 0 -0.72 0.44 -1.28 0.44 c-0.8 0.2 -0.12 0.56 -1.32 0.56 c0 1.32 2.96 0.52 2.96 1.36 c0.04 0.04 0.6 0.44 1.12 0.44 c0.2 0.48 0.84 0.44 1.32 0.88 c0.32 0.2 0.68 1 1.08 1.4 c0.32 -0.08 0.36 1.08 0.6 1.08 l-0.04 -0.04 c0 0.4 0.6 1.16 0.6 2 c0 4.48 -0.76 2.76 -0.76 4.32 c-0.32 0 -0.36 0.6 -0.6 0.84 c-0.8 0.36 0.16 0.52 -3.32 2.32 c0 0.08 -0.64 0.68 -2.28 0.68 c-0.24 0 -0.56 0.32 -1 0.32 c-8.96 0.32 -8.04 0.44 -16.6 0.44 c-0.92 0 -1.68 -0.04 -1.64 -0.16 l0 -0.76 c0.36 -0.12 0.8 -0.32 0.84 -0.4 z M24.684 39.76 c-0.04 0 -0.04 0.04 -0.04 0.04 c0 0.04 0 0.04 0.04 0.04 c0 0 0.04 0 0.04 -0.04 z M32.564 39.76 c-0.04 0 -0.08 0.04 -0.08 0.08 s0.04 0.08 0.08 0.08 l0 -0.16 z M37.044 39.76 l0.08 0.08 l0 -0.08 l-0.08 0 z M25.044 39.52 c0 0.24 0.28 0.24 0.4 0.24 c-0.08 -0.04 -0.12 -0.28 -0.16 -0.32 c-0.16 0 -0.16 0 -0.24 0.08 z M37.244 39.68 c0 0 -0.04 0.04 -0.04 0.08 l0.08 0 c0 -0.04 -0.04 -0.08 -0.04 -0.08 z M22.364 39.28 c0 0.2 0.04 0.24 0.08 0.24 s0.12 0 0.12 -0.04 c0 -0.12 -0.12 -0.12 -0.2 -0.2 z M21.924000000000003 39.36 c0.04 0.08 0.16 0.04 0.24 0.04 c-0.08 -0.04 -0.16 -0.04 -0.24 -0.04 z M24.684 39.36 c-0.04 0 -0.04 0.04 -0.04 0.04 l0.08 0 z M33.524 39.36 c0.04 0.04 0.04 0.08 0.08 0.08 l0.04 -0.04 l0 -0.12 z M38.764 39.36 c-0.04 0 -0.04 0.04 -0.04 0.04 l0.08 0 c0 0.04 0 -0.04 -0.04 -0.04 z M22.764000000000003 39.36 c0 -0.04 -0.04 -0.04 -0.04 -0.04 c-0.04 0 -0.04 0 -0.04 0.04 s0 0.04 0.04 0.04 c0 0 0.04 0 0.04 -0.04 z M23.004 39.28 c-0.04 0 -0.08 0.04 -0.08 0.08 s0.04 0.04 0.08 0.04 s0.04 0 0.04 -0.04 s0 -0.08 -0.04 -0.08 z M21.364 39.2 c-0.04 0 -0.08 0.04 -0.08 0.08 s0.04 0.08 0.08 0.08 c0 0 0.04 -0.04 0.04 -0.08 s-0.04 -0.08 -0.04 -0.08 z M24.884 39.28 c0 -0.04 -0.04 -0.04 -0.04 -0.04 c-0.04 0 -0.04 0 -0.04 0.04 s0 0.08 0.04 0.08 c0 0 0.04 -0.04 0.04 -0.08 z M33.284 38.88 c-0.04 0.08 0.04 0.12 0.16 0.16 c0.2 0 0.56 0.04 0.56 -0.24 l2.48 0 l-0.08 0 c0 -0.04 0.84 0 2.12 -0.56 c1 -0.88 0.96 -0.84 1.24 -1.4 l-0.08 0 c0 -0.04 0.44 -0.32 0.44 -1 c0 -1.96 0.52 -2.4 0.52 -3.84 c0 -2.84 -0.48 -2.6 -0.48 -3.4 c0 -0.08 0.04 -0.16 0.04 -0.24 c0 -0.16 -0.04 -0.4 -0.32 -0.68 c-0.04 0 -0.04 0.04 -0.08 0.04 c-0.24 0 -0.08 -1.12 -0.76 -1.12 c-0.08 -0.08 -0.08 -0.32 -0.84 -0.72 l0 0.04 c-0.16 0 -1.36 -0.76 -2.32 -0.76 c-1.12 0 -2.56 -0.08 -4.96 -0.08 c-0.16 0.08 -0.2 0.16 -0.2 0.2 c0 0 0.04 0 0.04 0.04 l-0.04 0 l-0.04 -0.04 c-0.08 0 -0.2 0.36 -0.2 3.16 c0 0.88 0.04 3.24 0.04 5.8 c0 0.68 -0.04 1.48 -0.04 2.2 c0 1.08 0.08 2.04 0.52 2.36 l0.48 0 l0.08 0.16 l0.84 0 l0.08 -0.08 l0.8 0 z M41.204 35.68 c-0.04 0 -0.08 0.04 -0.08 0.08 c0 0 0.04 0.04 0.08 0.04 l0 -0.12 z M30.524 23.76 c0 0.16 0.24 0.28 0.24 0.32 l3.16 0 c0.2 -0.16 1.24 0.08 1.56 -0.4 c1.48 0 2 -0.4 2.28 -0.76 l0 0.04 c0.08 0 0.48 -0.6 0.72 -0.56 c-0.04 -0.04 -0.08 -0.12 -0.08 -0.16 c0 -0.28 0.76 -0.4 0.76 -1.4 c0.12 -2.44 0.32 0.84 0.32 -4.76 c0 -0.4 0 -0.68 -0.08 -1.08 c0 0 -0.08 -1.4 -0.64 -1.88 l0 0.04 c-0.04 0 -0.28 -0.88 -1.08 -1.12 c-0.08 0 -0.64 -0.68 -2.04 -0.68 l-4.96 0 c-0.24 0.08 -0.32 1.12 -0.32 1.44 c0.04 0.08 0.12 0.72 0.12 1.44 c0 0.08 0 0.16 -0.08 0.24 l0 2.84 c0 0.44 0.08 0.64 0.08 1.52 c0 0.6 0 1.24 -0.08 1.24 c0 1.32 0.12 2.56 0.12 3.68 z M25.004 21.72 c-0.08 0 -0.08 0.04 -0.12 0.04 c0 0 -0.04 0 0.12 -0.04 z M43.484 21.64 c0 -0.04 -0.04 -0.04 -0.04 -0.04 c-0.04 0 -0.04 0 -0.04 0.04 s0 0.08 0.04 0.08 c0 0 0.04 -0.04 0.04 -0.08 z M23.004 11 c0 0.12 0 0.12 0.08 0.2 c0.16 0 0.2 0 0.32 -0.08 l-0.2 -0.24 c-0.16 0 -0.24 0.04 -0.24 0.08 s0.04 0.04 0.04 0.04 z M21.084000000000003 10.440000000000001 c-0.28 0 -0.2 0.2 -0.2 0.44 c0.16 -0.2 0.2 -0.16 0.2 -0.44 z M22.924 10.879999999999999 c0 -0.04 0 -0.04 -0.04 -0.04 l0 0.12 c0.04 0 0.04 -0.04 0.04 -0.08 z M21.764000000000003 10.600000000000001 c0 0.08 0.16 0.2 0.24 0.2 c0.04 0 0.24 0 0.32 -0.08 l-0.04 0 s0.04 0 0.04 -0.04 s-0.04 -0.12 -0.16 -0.12 c-0.08 0 -0.2 0.04 -0.4 0.04 z M23.404000000000003 10.559999999999999 c-0.12 0 -0.24 0.04 -0.24 0.16 c0.04 -0.04 0.2 -0.12 0.24 -0.16 z M22.764000000000003 10.559999999999999 c-0.12 0 -0.2 0 -0.2 0.08 c0 0.04 0 0.04 0.04 0.04 c0.12 0 0.16 -0.08 0.16 -0.12 z M36.084 10.559999999999999 l0 0.04 l0.12 -0.04 l-0.12 0 z M49.407999999999994 40.16 c-0.44 0 -0.44 0.04 -0.72 0.04 c-0.08 0 -0.44 -0.32 -0.56 -0.44 c0 0 0.08 -0.6 0.08 -0.72 c1.44 -0.12 2.48 -0.16 3.6 -0.28 c0.12 0 0 -0.76 0.44 -0.76 l0 -0.64 c0.04 0.04 0.08 0.04 0.08 0.04 c0.24 0 0.2 -1.12 0.52 -1.2 c0 -0.08 0.16 -1.44 0.56 -1.76 l0.2 -0.76 s1.36 -4.64 1.88 -4.64 c0.04 0 0.12 0.04 0.16 0.04 c0.2 0 0.24 -0.08 0.24 -0.16 c0 -0.36 -0.32 -0.2 -0.32 -0.48 c0 -0.72 0.72 -2.08 0.8 -2.16 c0.04 -1.64 0.64 -1.24 0.64 -2.28 l0 0.04 c0.04 0 0.36 -1 0.52 -1.12 c0 0.08 0.04 0.08 0.04 0.08 s-0.04 0 -0.04 -0.04 c0 -0.24 0.8 -1.88 0.8 -2.32 c0.2 0 0.24 -0.04 0.24 -0.12 s-0.04 -0.16 -0.04 -0.28 c0 -0.24 0.08 -0.48 0.36 -0.8 l0 0.04 c0.08 0 0.04 -0.88 0.36 -0.88 l0.16 -0.76 l0.24 -0.2 l0 -0.64 l0.32 -0.24 l0 -0.68 s0.24 -0.08 0.24 -0.16 c-0.04 0 -0.08 -0.08 -0.08 -0.12 c0 -0.52 1 -2.04 1 -3.08 l0.2 -0.16 l0 -0.64 c0 0.04 0.04 0.04 0.04 0.04 c0.56 0 -0.2 -2.32 1.88 -2.32 c0.16 0 0.88 0.44 0.88 1.04 c0.16 0.16 -0.16 0.56 0.56 1.88 c0.04 0 1 2.6 1 3.28 c0.36 0 0.12 0.8 1.04 2.72 c0.24 1.08 0.68 1.04 0.68 1.52 l0 -0.04 s0.2 1.28 0.36 1.28 l-0.04 0 c0 0.16 0.96 1.2 0.96 2.44 c0.24 1.16 0.64 0.68 0.64 1.68 l-0.04 -0.04 c0 0.08 0.64 0.92 0.64 1.44 c-0.04 0 -0.08 0 -0.08 0.04 c0 0.16 0.44 0.72 0.44 0.92 c0 0.04 -0.04 0.04 -0.04 0.08 c0 0.08 0.4 0.4 0.4 1.12 c0.16 1.4 0.84 1.48 0.84 2.36 c-0.04 0.08 -0.08 0.12 -0.08 0.16 c0 0.2 0.64 0.2 0.64 1.12 c0 2.28 1.56 2.8 1.56 4.4 c0.16 1.28 0.92 1.72 1.04 1.8 l2.6 0 c0.16 0 0.4 0.12 0.52 0.2 l0 0.72 c-0.16 0.08 -0.28 0.24 -0.92 0.24 c-0.08 0 -2 -0.08 -2.8 -0.08 c-0.36 0 -0.68 0.08 -1 0.08 c-0.04 0 -0.68 -0.08 -0.76 -0.08 c-2.16 0 -3.52 0.12 -4.36 0.12 c-0.04 0 -0.04 -0.12 -0.68 -0.12 c-0.32 0 -0.4 0 -0.56 0.08 c-0.2 0 -0.36 -0.08 -0.44 -0.2 c-0.08 0 -0.24 0.04 -0.24 0.04 l0.08 0.08 l-0.08 0.08 c-1.32 0 -1.44 0 -1.72 -0.24 l0.08 -0.68 c0 -0.08 0.28 -0.24 0.44 -0.24 l3 0 c0.04 0.04 0.32 -0.2 0.32 -0.4 c0 -0.08 -0.64 -0.92 -0.64 -1.4 c0.08 -0.04 0.08 -0.04 0.08 -0.12 c0 -0.2 -0.68 -0.72 -0.68 -1.76 c0.04 0 0.04 0 0.04 -0.04 c0 -0.08 -0.44 -0.4 -0.44 -0.72 c0 -1.44 -0.64 -1.44 -0.64 -2.52 l0 0.04 c-0.08 0 -0.44 -1 -0.8 -1 c-2.68 0 -5.52 0.08 -8.76 0.08 c0 0.16 -0.32 0.24 -0.32 0.68 c-0.6 1.32 -0.68 1.12 -0.68 1.76 c-0.48 0.32 0.04 0.56 -0.52 1.24 c-0.32 2.2 -0.76 0.96 -0.76 2.44 l0 -0.04 c-0.08 0 -0.44 1.04 -0.48 1.04 c0 0.64 0.16 0.64 0.4 0.8 l3.2 0 c0.2 0 0.6 0.04 0.6 0.52 s-0.12 0.72 -0.84 0.72 c-0.12 0 -0.28 -0.08 -0.48 -0.08 c-0.44 0 -0.6 0.08 -0.8 0.08 c-0.08 0 -0.28 -0.08 -0.32 -0.08 l-2.84 0 c-0.08 0.08 -0.16 0.08 -0.24 0.08 c-0.12 0 -0.32 -0.04 -0.48 -0.16 c0 0 0.08 -0.08 0.08 -0.16 l-0.12 0 c-0.08 0 -0.12 0 -0.12 0.08 l0.04 0.08 c-0.04 0.16 -0.08 0.16 -0.32 0.16 c0 -0.52 0 -0.4 0.12 -0.56 c-0.04 -0.16 0.04 -0.36 -0.08 -0.44 c0 0.28 -0.12 0.48 -0.36 0.64 c0 0.08 0.12 0.16 0.2 0.2 c-0.16 0 -0.6 0.2 -0.68 0.32 c-0.72 0 -0.64 -0.16 -1.08 -0.16 z M49.087999999999994 39.84 l0 0.08 l0.2 0 c-0.12 -0.08 -0.16 -0.08 -0.2 -0.08 z M49.768 39.92 c0 -0.04 -0.04 -0.04 -0.08 -0.04 s-0.08 0 -0.08 0.04 s0.04 0.08 0.08 0.08 s0.08 -0.04 0.08 -0.08 z M50.007999999999996 39.84 c-0.04 0 -0.08 0.04 -0.08 0.08 s0.04 0.08 0.08 0.08 s0.04 -0.04 0.04 -0.08 s0 -0.08 -0.04 -0.08 z M50.888 39.76 c-0.24 0 -0.56 0.08 -0.64 0.16 c0.68 0 0.48 -0.04 0.64 -0.16 z M52.208 39.8 c0 0.04 0.32 0.08 0.36 0.12 l0.08 -0.08 c-0.2 -0.04 -0.4 -0.04 -0.44 -0.04 z M55.168 39.84 c0.52 0 1.32 0.08 1.52 0.08 c-0.44 0 -0.44 -0.44 -0.48 -0.64 c0.04 0 -0.32 0.08 -0.32 0.32 c-0.08 0 -0.04 -0.24 -0.36 -0.24 c0 0.28 -0.16 0.36 -0.36 0.48 z M57.007999999999996 39.84 l0.08 0.08 c0.04 0 0.28 -0.08 0.36 -0.08 l-0.44 0 z M51.488 39.8 c-0.04 0 -0.08 0.04 -0.08 0.08 c0 0 0.04 0.04 0.08 0.04 s0.04 -0.04 0.04 -0.04 c0 -0.04 0 -0.08 -0.04 -0.08 z M54.647999999999996 39.84 c0 0 -0.08 -0.04 -0.12 -0.04 c-0.08 0 -0.08 0.04 -0.08 0.04 c0 0.04 0 0.08 0.08 0.08 c0.04 0 0.12 -0.04 0.12 -0.08 z M64.488 39.76 c0.04 0.04 0.16 0.08 0.2 0.08 s0.24 -0.04 0.32 -0.08 l0 -0.48 s-0.08 -0.04 -0.12 -0.04 c-0.36 0 -0.4 0.08 -0.4 0.24 l0 0.28 z M75.328 39.8 c0.12 0 0.16 0.04 0.36 0.04 c0.04 0 0.24 -0.04 0.36 -0.04 l-0.72 0 z M77.24799999999999 39.8 l0 0.04 l0.04 -0.04 l-0.04 0 z M65.608 39.76 l-0.08 0.04 l0.12 0.04 z M68.608 39.76 c-0.04 0 -0.08 0.04 -0.08 0.04 s0.04 0.04 0.08 0.04 s0.04 -0.04 0.04 -0.04 s0 -0.04 -0.04 -0.04 z M74.088 39.76 c0.04 0.04 0.08 0.04 0.2 0.04 l0.76 0 c-0.04 -0.04 -0.12 -0.08 -0.2 -0.12 c-0.08 0.08 -0.2 0.08 -0.24 0.08 c-0.36 0 -0.28 -0.28 -0.36 -0.28 z M48.448 39.48 c0 0.24 0 0.2 0.08 0.28 l0.52 0 l0 -0.68 c-0.56 0.28 -0.6 0.16 -0.6 0.4 z M56.888 39.56 l0 0.2 c0.08 0 0.12 -0.08 0.12 -0.08 c-0.04 -0.24 -0.16 -0.24 -0.16 -0.44 c-0.16 0 -0.24 0.08 -0.24 0.12 c0.04 0.08 0.08 0.2 0.28 0.2 z M76.448 39.68 c-0.04 0 -0.04 0.04 -0.04 0.08 s0 0.04 0.04 0.04 s0.04 0 0.04 -0.04 s0 -0.08 -0.04 -0.08 z M49.528 39.24 c0 0.32 -0.04 0.4 -0.12 0.44 c0.24 0 0.44 0 0.44 -0.24 s-0.04 -0.2 -0.32 -0.2 z M53.768 39.6 l0 0.08 l0.08 0 z M54.488 39.44 l0.08 0.04 l0 -0.12 z M57.087999999999994 39.16 c0 0.04 0 0.12 0.04 0.12 c0 0 0.16 0 0.16 -0.12 c0 -0.08 -0.08 -0.08 -0.16 -0.12 c-0.04 0.04 -0.04 0.08 -0.04 0.12 z M75.368 39.24 c0 0.04 0.08 0.04 0.12 0.04 c0 -0.2 0 -0.2 -0.08 -0.24 c0 0 -0.04 0.12 -0.04 0.2 z M77.128 38.96 c-0.2 0.04 -0.16 0.12 -0.16 0.32 l0.32 -0.2 c0 -0.04 -0.12 -0.08 -0.16 -0.12 z M74.088 39.08 c-0.04 0 -0.08 0.04 -0.08 0.04 c0 0.04 0.04 0.04 0.08 0.04 s0.04 0 0.04 -0.04 c0 0 0 -0.04 -0.04 -0.04 z M52.128 38.96 l0 0.12 l0.08 -0.12 l-0.08 0 z M52.248 38.36 c0 0.04 0.04 0.6 0.4 0.6 c-0.08 -0.04 -0.2 -0.4 -0.2 -0.6 l0.08 -0.24 l-0.08 -0.08 c-0.16 0 -0.2 0.24 -0.2 0.32 z M53.727999999999994 36.48 c-0.12 0.08 -0.28 0.32 -0.28 0.64 c0.04 0.04 0.08 0.04 0.08 0.04 c0.16 0 0.2 -0.24 0.24 -0.36 c0 -0.04 -0.04 -0.36 -0.04 -0.32 z M53.528 35.44 c0 -0.04 -0.04 -0.04 -0.04 -0.04 c-0.04 0 -0.04 0 -0.04 0.04 s0 0.04 0.04 0.04 c0 0 0.04 0 0.04 -0.04 z M54.647999999999996 32.56 c-0.04 0 -0.08 0.04 -0.08 0.04 s0.04 0.04 0.08 0.04 l0.04 -0.04 z M66.008 32 c-0.04 0 -0.04 0.04 -0.04 0.08 s0 0.08 0.04 0.08 s0.04 -0.04 0.04 -0.08 s0 -0.08 -0.04 -0.08 z M55.007999999999996 31.68 c-0.04 0 -0.04 0.04 -0.04 0.08 s0 0.08 0.04 0.08 s0.04 -0.04 0.04 -0.08 s0 -0.08 -0.04 -0.08 z M55.007999999999996 30.84 c-0.04 0 -0.04 0.04 -0.04 0.04 c0 0.04 0 0.04 0.04 0.04 s0.04 0 0.04 -0.04 c0 0 0 -0.04 -0.04 -0.04 z M56.848 29.2 c0.12 0.48 0.16 0.52 0.44 0.68 c0.48 0 1.8 -0.08 5.44 -0.08 c0.32 0 0.48 0.12 1.28 0.12 c0.4 0 0.8 -0.12 0.8 -0.56 c0 -0.2 -0.52 -0.96 -0.52 -1.36 l0.04 0 c0 -0.08 -0.44 -0.44 -0.44 -0.88 c0 -1.48 -0.76 -1.32 -0.76 -2.24 c0.04 0.04 0.04 0.08 0.04 0.08 c-0.04 0 -0.76 -1.32 -0.76 -2.08 c0 -0.52 -0.72 -1.28 -0.72 -2.16 l0.04 0 c0 -0.08 -0.44 -0.48 -0.44 -0.96 c-0.36 -0.84 -0.4 -0.76 -0.72 -0.76 c-1.16 2.76 -1.08 2.8 -1.44 3.48 c0 -0.08 -0.04 1.28 -0.56 1.48 l0 -0.08 c-0.04 0 -0.44 2.28 -0.84 2.64 c0 0.52 -0.88 1.2 -0.88 2.68 z M56.047999999999995 28.08 c-0.04 0 -0.08 0.04 -0.08 0.08 s0.04 0.08 0.08 0.08 s0.04 -0.04 0.04 -0.08 s0 -0.08 -0.04 -0.08 z M56.967999999999996 25.439999999999998 c-0.04 0 -0.08 0.04 -0.08 0.08 c0 0 0.04 0.04 0.08 0.04 l0 -0.12 z M58.647999999999996 23.08 l0 0.04 l0.04 0 z M58.488 22.44 c-0.04 0 -0.08 0.04 -0.08 0.08 l0.08 0 l0.04 0 c0 -0.04 0 -0.08 -0.04 -0.08 z M58.647999999999996 21.4 c-0.04 0 -0.08 0.04 -0.08 0.04 c0 0.04 0.04 0.08 0.08 0.08 c0 0 0.04 -0.04 0.04 -0.08 z M59.727999999999994 18.68 c0 -0.04 -0.04 -0.04 -0.04 -0.04 c-0.04 0 -0.04 0 -0.04 0.04 s0 0.08 0.04 0.08 c0 0 0.04 -0.04 0.04 -0.08 z M59.848 18.56 l-0.04 0 c0 0.04 0.04 0.04 0.04 0.04 s0.04 0 0.04 -0.04 l-0.04 0 z M64.208 15.760000000000002 c-0.04 0 -0.04 0.04 -0.04 0.08 s0 0.08 0.04 0.08 s0.04 -0.04 0.04 -0.08 s0 -0.08 -0.04 -0.08 z M63.44799999999999 10.2 c0 0 -0.04 0.04 -0.04 0.08 l0.08 0 c0 -0.04 0 -0.08 -0.04 -0.08 z M62.408 10.120000000000001 c-0.04 0 -0.04 0.04 -0.04 0.08 s0 0.08 0.04 0.08 s0.04 -0.04 0.04 -0.08 s0 -0.08 -0.04 -0.08 z M62.727999999999994 10.120000000000001 l0.16 0.08 c0.32 0 0.2 0 0.32 -0.08 l-0.12 -0.16 c-0.16 0 -0.24 0.16 -0.36 0.16 z M85.57199999999999 38.84 c-0.36 0 -0.56 0.08 -0.8 0.12 c-0.36 0 -0.28 0 -0.32 -0.04 l-0.12 0.04 c0 0.12 0.04 0.12 0.12 0.16 c0 -0.04 -0.12 0.08 -0.2 0.24 l0.04 0 c0 0.04 -1.28 1.04 -1.48 1.04 c-0.92 0 -0.92 -1.08 -0.92 -1.24 c0 -0.08 0 -0.08 0.04 -0.2 c0 -4.48 -0.2 -3.8 -0.2 -6.48 c0 0 0.04 -0.04 0.04 -0.08 c0 -0.12 -0.08 -0.32 -0.08 -0.52 c0 -0.36 0.16 -0.6 1.2 -0.6 c0.12 0 0.28 0.12 0.64 0.76 c0 0.2 0.72 0.8 0.8 1.16 c-0.04 0.04 -0.08 0.08 -0.08 0.12 c0 0.16 0.6 0.4 0.6 0.64 c0 0.04 -0.04 0.08 -0.04 0.08 c0 0.24 0.4 0.44 0.4 0.56 c0.48 0.88 0.52 0.84 1.16 1.48 c0.2 0 1.68 2.64 2.8 2.64 c1.44 0.12 1.72 0.64 3.24 0.64 c0.84 0 0.72 -0.04 1 -0.2 c-0.08 0.08 -0.04 0.08 -0.08 0.08 c0 0 0.28 -0.4 1.6 -0.4 c0.6 0 1.76 -1.12 2 -1.28 c0.08 -0.08 0.48 -0.24 0.48 -0.32 c0 -0.24 0.84 -1.4 0.96 -1.52 c-0.04 -0.08 -0.04 -0.16 -0.04 -0.2 c0 -0.6 0.64 0.32 0.64 -3.4 c-0.04 -0.12 -0.16 -1.4 -0.44 -1.64 c-0.12 0 -0.12 -0.92 -1.08 -1.56 c0 -0.04 0.04 -0.24 0.04 -0.32 c-1.56 -0.08 -0.76 -0.88 -1.8 -0.88 c-1.96 0 -0.4 -0.6 -2.52 -0.6 c-0.2 -0.2 -1.96 -0.16 -2.36 -0.4 c-0.08 0 -0.36 0.08 -0.44 0.08 c-0.48 0 -0.08 -0.4 -1.16 -0.4 c-3.64 -0.2 -1.68 -0.88 -2.92 -0.88 l0 -0.08 c0.12 0 0.28 -0.04 0.4 0.08 c0 0 0.2 -0.08 0.2 -0.12 c0 0 -0.08 -0.08 -0.08 -0.12 l-1.24 0 c-0.4 -0.36 -0.36 -0.6 -0.68 -0.68 c0 -0.04 -0.44 0.04 -1.12 -0.88 c0 -0.28 -0.88 -1.32 -1.08 -1.48 c-0.36 -1.88 -0.8 -3 -0.8 -4.44 c0.08 -0.44 0 -1 0.16 -1.28 l0 0.04 c0.04 0 0.2 -1.36 0.32 -1.28 c-0.04 0 -0.08 -0.04 -0.08 -0.08 c0 -0.32 0.84 -1.2 0.84 -1.52 c-0.04 -0.04 -0.04 -0.08 -0.04 -0.08 c0 -0.28 0.64 -0.56 0.64 -0.68 s0.52 -0.96 0.76 -1.12 c-0.04 0.04 -0.04 0.08 -0.04 0.08 c-0.04 0 1.96 -1.32 2 -1.36 c2.44 -0.4 0.32 -1.08 3.04 -1.08 l3.92 0 c0.08 0 0.92 0 1.32 0.32 c1.64 0.08 1.36 1.04 2.08 1.04 c1.32 0 0.96 -0.08 1.36 -0.48 c-0.16 -0.2 1.08 -0.04 1.2 -0.56 l0.52 0 c0.08 0 0.4 0.32 0.44 0.4 c0.12 4.96 0.36 4.84 0.36 7.44 c0 0.2 -0.36 0.32 -0.52 0.64 l-0.56 0 l0 -0.16 c-0.12 0 -0.96 -0.56 -0.96 -1 l0 0.04 c-0.04 0 -0.32 -1 -0.76 -1.16 l0.04 0 c0 -0.12 -0.52 -0.52 -0.52 -0.8 c-0.6 -0.88 -0.52 -0.84 -1 -1.32 l0.04 0 c0 -0.04 -1 -0.64 -1 -0.92 c0 -0.6 -1.48 -1.32 -1.8 -1.64 c0.12 -0.24 -1.04 -0.56 -2.2 -0.56 c-0.04 0 -0.08 0.04 -0.12 0.04 c-0.4 0 -0.24 -0.68 -0.36 -0.68 c-0.08 0.08 -0.12 0.08 -0.16 0.16 c-0.04 0 -0.2 -0.04 -0.32 -0.08 c-0.24 0.88 -0.64 0.4 -0.76 0.64 c-0.24 -0.12 -0.08 -0.24 -0.24 -0.28 c-0.84 0.4 -0.6 0.36 -2.44 1.28 c-1.2 2.36 -0.56 -0.56 -1.88 3.04 l0 1.76 l0 -0.04 c0.04 0 0.2 1.56 0.56 1.76 c0.08 0.12 0.6 0.52 0.76 0.84 c0.28 0 0.64 1.04 1.8 1.04 c0.48 0.52 2.36 0.4 4.28 0.88 c0.56 0.16 3.48 0.16 4.16 0.96 l-0.04 0 c0 0.08 0.96 0.16 1.12 0.28 c0 -0.08 1.92 1.12 1.92 1.36 c0 0.04 0 0.04 -0.04 0.04 c0.68 0 1.36 1.52 1.64 1.72 c0.2 1.44 0.76 1 0.76 2.12 c0.48 1.52 0.4 1.88 0.4 3.76 c-0.12 0.12 -0.2 1.52 -0.4 1.6 c0 2.04 -1.04 1.92 -1.04 2.8 l-0.52 0.48 c0 0.08 -0.04 0.24 -0.04 0.24 c-0.8 0.72 -0.52 0.84 -0.88 1 c-0.12 0 -0.32 0.6 -1 0.8 c-0.76 1.16 -1.08 0.24 -1.88 1.4 c-3.6 0 0.08 0.88 -3.92 0.88 c-4.56 0 -2.96 -0.12 -4.44 -0.48 c-0.04 0 -0.04 0.04 -0.08 0.04 c-0.24 0 -0.6 -0.32 -0.92 -0.32 c0 -0.04 -0.6 -0.12 -0.6 -0.2 c0 0.04 0.04 0.04 0.04 0.04 c0 -0.04 -0.56 -0.84 -1 -0.84 c-0.08 0 -0.16 0.04 -0.24 0.08 z M93.172 40.28 c-0.04 0 -0.04 0.04 -0.04 0.08 c0 0 0 0.04 0.04 0.04 s0.04 -0.04 0.04 -0.04 c0 -0.04 0 -0.08 -0.04 -0.08 z M90.172 40.2 c-0.04 0 -0.04 0.04 -0.04 0.04 c0 0.04 0 0.04 0.04 0.04 s0.04 0 0.04 -0.04 c0 0 0 -0.04 -0.04 -0.04 z M93.972 40.2 c-0.04 0 -0.08 0.04 -0.08 0.08 s0.04 0.08 0.08 0.08 s0.04 -0.04 0.04 -0.08 s0 -0.08 -0.04 -0.08 z M93.092 40.12 c-0.04 0 -0.08 0.04 -0.08 0.08 s0.04 0.08 0.08 0.08 s0.04 -0.04 0.04 -0.08 s0 -0.08 -0.04 -0.08 z M93.972 40.04 c-0.08 0 -0.12 0 -0.12 0.04 l0.04 0.04 l0.08 0 l0 -0.08 z M91.05199999999999 40.04 c-0.04 0 -0.04 0 -0.04 0.04 c0 0 0 0.04 0.04 0.04 s0.04 -0.04 0.04 -0.04 c0 -0.04 0 -0.04 -0.04 -0.04 z M93.972 39.76 l0 0.2 c0.08 -0.04 0.16 -0.12 0.2 -0.2 l-0.2 0 z M95.05199999999999 39.64 c-0.36 0 -0.36 0.12 -0.36 0.24 c0.04 0 0.12 -0.04 0.2 -0.08 c0.04 0 0.16 0.04 0.24 0.08 l0.16 -0.08 s0 -0.16 -0.24 -0.16 z M90.29199999999999 39.68 l0 0.08 l0.16 0 l0 -0.08 l-0.16 0 z M92.29199999999999 39.68 c-0.04 0 -0.04 0.04 -0.04 0.08 c0 0 0 0.04 0.04 0.04 s0.04 -0.04 0.04 -0.04 c0 -0.04 0 -0.08 -0.04 -0.08 z M93.41199999999999 39.68 c-0.04 0 -0.08 0.04 -0.08 0.08 c0 0 0.04 0.04 0.08 0.04 s0.04 -0.04 0.04 -0.04 c0 -0.04 0 -0.08 -0.04 -0.08 z M89.732 39.44 c-0.04 0 -0.08 0 -0.08 0.04 l0.08 0 l0.04 0 c0 -0.04 0 -0.04 -0.04 -0.04 z M88.49199999999999 39.32 c-0.04 0 -0.08 0 -0.12 0.04 z M88.37199999999999 39.16 c-0.04 0 -0.08 0.04 -0.08 0.08 s0.04 0.08 0.08 0.08 s0.04 -0.04 0.04 -0.08 s0 -0.08 -0.04 -0.08 z M88.49199999999999 39.12 c-0.04 0 -0.04 0.04 -0.04 0.08 c0 0 0 0.04 0.04 0.04 s0.04 -0.04 0.04 -0.04 c0 -0.04 0 -0.08 -0.04 -0.08 z M82.77199999999999 39.04 c-0.04 0 -0.08 0.04 -0.08 0.08 c0 0 0.04 0.04 0.08 0.04 l0.04 -0.04 c0 -0.04 -0.04 -0.08 -0.04 -0.08 z M88.37199999999999 39.04 c-0.04 0 -0.08 0.04 -0.08 0.08 c0 0 0.04 0.04 0.08 0.04 s0.04 -0.04 0.04 -0.04 c0 -0.04 0 -0.08 -0.04 -0.08 z M82.21199999999999 38.92 c-0.04 0 -0.08 0.04 -0.08 0.04 c0 0.04 0.04 0.08 0.08 0.08 c0 0 0.04 -0.04 0.04 -0.08 z M88.692 38.96 l-0.08 0 c0 0.04 0 0.08 0.04 0.08 c0 0 0.04 -0.04 0.04 -0.08 z M96.532 38.92 c-0.04 0 -0.04 0.04 -0.04 0.04 l0.08 0 c0 0.04 0 -0.04 -0.04 -0.04 z M82.21199999999999 38.24 l0 -0.16 l0 0.16 z M98.37199999999999 38.16 c-0.04 0 -0.08 0.04 -0.08 0.08 l0.12 0 c0 -0.04 -0.04 -0.08 -0.04 -0.08 z M98.93199999999999 37.68 l0 0.08 l0.04 0 z M98.812 37.56 c-0.04 0 -0.08 0.04 -0.08 0.08 c0 0 0.04 0.04 0.08 0.04 s0.04 -0.04 0.04 -0.04 c0 -0.04 0 -0.08 -0.04 -0.08 z M99.05199999999999 37.6 l0.08 -0.04 z M99.292 37.36 l0 0 l-0.08 0.08 c0.04 -0.04 0.04 -0.08 0.08 -0.08 z M82.332 37.32 c-0.04 0 -0.08 0 -0.08 0.04 c0 0 0.08 0 0.08 -0.04 l0 0 z M82.21199999999999 36.92 l0 0.24 l0.04 0 c0 -0.04 0 -0.2 -0.04 -0.24 z M100.532 36.04 c-0.04 0 -0.04 0.04 -0.04 0.04 s0 0.04 0.04 0.04 s0.04 -0.04 0.04 -0.04 s0 -0.04 -0.04 -0.04 z M99.292 32.76 l0.08 0.04 l0.08 -0.04 l-0.16 0 z M82.21199999999999 32.12 l-0.08 0 c0 0.04 0 0.08 0.04 0.08 c0 0 0.04 -0.04 0.04 -0.08 z M102.13199999999999 31.439999999999998 l0 -0.04 c-0.04 0 -0.04 0 -0.04 0.04 s0 0.08 0.04 0.08 l0 -0.08 z M85.332 24.68 c-0.04 0 -0.08 0.04 -0.08 0.08 s0.04 0.08 0.08 0.08 s0.04 -0.04 0.04 -0.08 s0 -0.08 -0.04 -0.08 z M83.692 22.96 c-0.04 0 -0.08 0.04 -0.08 0.08 c0 0 0.04 0.04 0.08 0.04 l0.04 -0.04 c0 -0.04 -0.04 -0.08 -0.04 -0.08 z M96.532 22.56 c-0.04 0 -0.04 0.04 -0.04 0.08 c0 0 0 0.04 0.04 0.04 s0.04 -0.04 0.04 -0.04 c0 -0.04 0 -0.08 -0.04 -0.08 z M83.21199999999999 22.4 l0 0.08 l0.08 -0.08 l-0.08 0 z M87.012 22.04 c0 0 -0.04 0 -0.04 0.04 l0.08 0 c0 -0.04 -0.04 -0.04 -0.04 -0.04 z M90.972 21.52 c-0.08 0 -0.28 0.08 -0.28 0.12 s0.04 0.04 0.04 0.04 c0.08 0 0.16 -0.08 0.24 -0.16 z M82.452 20.36 c-0.04 0 -0.08 -0.04 -0.08 0.2 c0 0.04 0.04 0.12 0.04 0.12 c0.04 0 0.08 -0.08 0.08 -0.12 c0 -0.08 -0.04 -0.16 -0.04 -0.2 z M82.332 19.96 c-0.04 0 -0.08 0.04 -0.08 0.08 s0.04 0.08 0.08 0.08 l0 -0.16 z M99.452 12.920000000000002 c-0.04 0 -0.08 0.04 -0.08 0.08 c0 0 0.04 0.04 0.08 0.04 s0.04 -0.04 0.04 -0.04 c0 -0.04 0 -0.08 -0.04 -0.08 z M100.012 12.920000000000002 c-0.04 0 -0.04 0.04 -0.04 0.08 c0 0 0 0.04 0.04 0.04 s0.04 -0.04 0.04 -0.04 c0 -0.04 0 -0.08 -0.04 -0.08 z M100.172 12.920000000000002 c-0.04 0 -0.08 0.04 -0.08 0.08 c0 0 0.04 0.04 0.08 0.04 l0.04 -0.04 c0 -0.04 -0.04 -0.08 -0.04 -0.08 z M91.21199999999999 12.04 l0 -0.44 c0.04 -0.04 0.12 -0.08 0.16 -0.12 l0.08 0.08 c0 0.12 -0.16 0.32 -0.16 0.56 z M100.012 11.879999999999999 c-0.04 0 -0.04 0.04 -0.04 0.08 c0 0 0 0.04 0.04 0.04 s0.04 -0.04 0.04 -0.04 c0 -0.04 0 -0.08 -0.04 -0.08 z M86.892 11.68 c-0.2 0.04 -0.2 0.2 -0.2 0.2 c0.04 -0.04 0.2 -0.12 0.2 -0.16 l0 -0.04 z M85.93199999999999 11.48 c0 0.08 0.12 0.12 0.2 0.12 c-0.04 -0.12 -0.2 -0.12 -0.24 -0.12 l0.04 0 z M99.85199999999999 11.559999999999999 c0.04 0.04 0.08 0.04 0.12 0.04 c0.16 0 0.2 -0.12 0.2 -0.24 z M86.57199999999999 11.239999999999998 c-0.12 0 -0.08 0.12 -0.08 0.24 l0.08 0 l0 -0.24 z M94.49199999999999 10.879999999999999 c-0.12 0.2 -0.08 0.36 -0.08 0.52 c0.16 -0.04 0.2 -0.24 0.2 -0.44 c-0.04 -0.04 -0.04 -0.08 -0.12 -0.08 z M86.57199999999999 11.04 c-0.04 0 -0.08 0 -0.08 0.04 l0.08 0 l0.04 0 c0 -0.04 0 -0.04 -0.04 -0.04 z M99.452 10.96 c0 -0.04 -0.04 -0.04 -0.12 -0.04 c-0.04 0 -0.08 0 -0.08 0.04 s0.04 0.08 0.08 0.08 c0.08 0 0.12 -0.04 0.12 -0.08 z M99.612 10.84 c-0.04 0 -0.08 0.04 -0.08 0.04 l0.04 0 l0.04 0 l0 -0.04 z M95.65199999999999 10.84 l-0.04 -0.04 z M93.172 10.8 c0 -0.04 -0.04 -0.04 -0.04 -0.04 s-0.04 0 -0.04 0.04 s0.04 0.04 0.04 0.04 s0.04 0 0.04 -0.04 z M98.612 10.8 c0 -0.04 -0.04 -0.04 -0.04 -0.04 c-0.04 0 -0.04 0 -0.04 0.04 s0 0.04 0.04 0.04 c0 0 0.04 0 0.04 -0.04 z M99.13199999999999 10.719999999999999 c-0.04 0 -0.08 0.04 -0.08 0.08 c0 0 0.04 0.04 0.08 0.04 s0.04 -0.04 0.04 -0.04 c0 -0.04 0 -0.08 -0.04 -0.08 z M100.012 10.64 l0 0.16 l0.08 -0.08 z M87.85199999999999 10.32 c0 0.12 0.08 0.28 0.08 0.4 l0.08 -0.2 s-0.04 -0.16 -0.08 -0.28 z M94.892 10.48 c-0.04 0 -0.08 0.04 -0.08 0.04 s0.04 0.04 0.08 0.04 s0.04 -0.04 0.04 -0.04 s0 -0.04 -0.04 -0.04 z M99.252 10.239999999999998 c-0.12 0.04 -0.16 0.16 -0.2 0.28 c0.24 0 0.2 -0.12 0.2 -0.28 z M100.012 10.48 l0 0.04 l0.08 0 z M100.012 10.239999999999998 c-0.04 0 -0.04 0.04 -0.04 0.04 c0 0.04 0 0.04 0.04 0.04 s0.04 0 0.04 -0.04 c0 0 0 -0.04 -0.04 -0.04 z M91.65199999999999 10.079999999999998 c-0.04 0.12 0.2 0.16 0.2 0.16 c0.08 -0.12 0.48 0.04 0.44 -0.16 l-0.64 0 z M94.172 10.16 l-0.08 0 c0 0.04 0 0.08 0.04 0.08 c0 0 0.04 -0.04 0.04 -0.08 z M89.41199999999999 10 l0 0.08 l0.16 0 l0 -0.08 l-0.16 0 z M90.172 9.920000000000002 c-0.12 0 -0.28 0.12 -0.32 0.16 l0.32 0 l0 -0.16 z M93.172 10 l0 0.08 l0.24 0 z M106.456 39.44 l0 -0.2 l0.48 -0.48 l1.96 0 l0.16 0.08 l0.92 0.08 c0.16 0.08 0.36 -0.52 0.48 -0.52 l0 -4.84 c0 -0.04 -0.08 -0.52 -0.08 -0.56 c0 0 0.08 -0.96 0.08 -1.16 c0.08 -0.12 -0.12 0.16 -0.12 -0.64 c0 -0.08 0.12 -0.16 0.12 -0.32 c0 -0.28 -0.08 -0.44 -0.08 -0.64 c0 -0.08 0.08 -0.36 0.08 -0.52 l0 -2.52 c0 -0.36 -0.12 -1 -0.12 -1.48 l0.04 -3.44 c-0.04 -0.16 -0.04 -1.2 -0.04 -1.4 c0 -0.12 0.04 -1.04 0.04 -1.16 c0 -0.04 -0.04 -2.08 -0.04 -2.32 c0 -2.48 0.04 -2.92 0.04 -4 c0 -0.48 0 -1.52 -0.04 -1.84 l-0.24 -0.28 s-0.8 -0.04 -1.12 -0.04 c-0.52 0 -0.92 0.12 -1.4 0.12 c-0.44 -0.08 -0.88 0.24 -1.28 -0.68 c0 -0.36 0.08 -0.8 0.44 -0.88 c8.16 0 9 0.08 12.24 0.08 c7.76 0 7.32 -0.08 10.56 -0.08 c0.4 0 0.84 7.32 0.84 7.68 c0 0.04 0.04 0.04 0.04 0.08 c0 0.48 -0.72 0.84 -0.96 0.84 c-0.52 0 -0.8 -0.56 -0.96 -1.2 c0.16 0 -1.72 -3.08 -1.64 -2.92 c-0.52 -0.52 -0.56 -0.6 -0.88 -1 c0 -0.36 -1.72 -1.16 -1.92 -1.44 c0 0.04 -0.04 0.04 -0.04 0.04 c-0.12 0 -0.24 -0.48 -1.08 -0.48 c-1.12 0 -1.04 -0.16 -2.76 -0.16 l0 -0.08 l-1.24 0 l-0.08 0.08 l-0.52 0 l0.28 -0.08 c-0.92 0 -1.32 -0.12 -1.56 -0.12 c-0.36 0 -0.8 0.2 -0.8 1.36 c0 2.24 0.08 3.44 0.08 4 c0 0.6 -0.08 2.36 -0.08 2.6 c0 0.68 0.16 1.24 0.16 1.72 c-0.08 0 -0.16 0.28 -0.16 0.4 s0.16 0.88 0.16 1.24 c0 0.08 -0.08 0.2 -0.08 0.24 c0 0.12 -0.12 1.64 0.28 1.64 c0.92 0 1.6 -0.24 2.32 -0.24 l0 0.04 c0.12 0 0.48 -0.6 0.76 -0.6 c0.48 0 0.56 -0.16 1.08 -0.68 l0 0.04 c-0.04 0 0.68 -1.44 1.08 -1.92 c0.68 -0.32 -0.24 -2 1.76 -2 l0.12 0.08 c0 0.36 0.2 0.48 0.2 1.6 c-0.04 0.32 -0.08 1.36 -0.08 1.28 c0 0.44 0.08 1.12 0.08 1.68 c0 0.48 0 0.48 -0.08 0.72 c0 0.4 0.08 0.92 0.08 1.04 c0 0.52 -0.08 0.52 -0.08 0.92 c0 0.32 0.08 2.48 0.08 2.76 c0 0.16 -0.08 0.32 -0.08 0.56 l0 1.48 c0.04 0.04 -0.32 0.32 -0.52 0.32 c-1.28 0 -0.2 -0.24 -1.64 -2.84 c-1.12 -1.96 -1.48 -1.88 -2.12 -2.44 c0.04 0 -1.16 -0.4 -1.44 -0.4 l-0.12 -0.2 l-1.28 -0.04 c-0.6 0.32 -0.52 2 -0.52 1.36 c0 0.16 0.12 0.56 0.12 1.16 c0 0.28 -0.04 0.76 -0.12 1.2 c0 0.04 0.12 0.4 0.12 0.64 c0 0.4 -0.08 0.36 -0.08 0.52 c0 0.28 0.08 0.44 0.08 0.56 c-0.12 1.56 -0.16 4.36 -0.16 4.84 c0 2.52 -0.04 2.72 0.56 3.32 l1.72 0 c0.16 -0.04 0.36 -0.16 0.52 -0.16 c0.04 0 2.4 0.08 2.72 0.08 s0.04 -0.2 0.88 -0.2 c1.52 -0.6 1.44 -0.08 2.72 -1.08 c-0.04 0 -0.04 -0.04 -0.04 -0.04 c0 -0.12 1 -0.56 1.52 -1.2 c-0.04 0 -0.04 -0.04 -0.04 -0.04 c0 -0.6 1.76 -1.04 1.76 -2.48 c0 -0.16 0.72 -1.08 0.72 -1.32 c1 -2.52 0.36 -2.4 1.64 -2.4 c0.04 0 0.48 0 0.48 0.52 c0 2.6 -0.4 5.8 -0.4 7.6 c0 0.28 0.04 0.56 0.04 0.84 c0 0.48 -0.16 0.88 -1.12 0.88 l-15.4 0 c-2.32 0 -3.16 0.08 -7.44 0.08 c-0.76 -0.24 -0.56 -0.56 -0.56 -0.64 z M106.85600000000001 39.6 l0 -0.04 l0 0.12 c0 0.12 0.04 0.28 0.4 0.28 c0.08 0 0.2 0 0.32 -0.04 l0 -0.08 l-0.32 -0.36 c-0.04 0.08 -0.08 0.16 -0.16 0.2 c-0.04 0 -0.16 -0.04 -0.24 -0.12 l0 0.04 z M121.056 39.76 l0.04 0.08 c0.04 -0.04 0.04 -0.04 0.04 -0.16 z M119.49600000000001 39.68 c-0.12 0 -0.16 0 -0.2 0.08 l0.2 0 l0 -0.08 z M108.256 39.24 c0.08 0 0.24 0.08 0.28 0.08 c0.36 0 0.24 0 0.36 -0.08 c-0.08 0 -0.36 -0.08 -0.4 -0.08 c-0.16 0 -0.16 0 -0.24 0.08 z M130.216 39.24 c0.04 0.12 0.16 0.08 0.24 0.08 c-0.04 -0.08 -0.12 -0.08 -0.24 -0.08 z M111.336 39.24 c0 -0.04 -0.04 -0.04 -0.08 -0.04 s-0.08 0 -0.08 0.04 s0.04 0.08 0.08 0.08 s0.08 -0.04 0.08 -0.08 z M107.096 39.12 l0 0.04 l0.4 0 c-0.08 -0.04 -0.32 -0.04 -0.4 -0.04 z M110.776 33.8 l-0.04 -0.04 c-0.04 0 -0.04 0.04 -0.04 0.04 c0 0.04 0 0.08 0.04 0.08 c0 0 0.04 -0.04 0.04 -0.08 z M110.696 32.08 l0 0.16 c0.04 0 0.04 -0.04 0.04 -0.08 s0 -0.08 -0.04 -0.08 z M110.776 31.84 c0.04 0.08 0.12 0.08 0.24 0.08 c0 -0.08 0.04 -0.32 -0.08 -0.4 c0 0.08 -0.16 0.2 -0.16 0.32 z M111.016 31.08 c0 0.04 0 0.08 0.04 0.12 l0.04 -0.12 l-0.08 0 z M131.016 31.08 c-0.04 0 -0.08 0.04 -0.08 0.08 c0 0 0.04 0.04 0.08 0.04 s0.04 -0.04 0.04 -0.04 c0 -0.04 0 -0.08 -0.04 -0.08 z M131.216 31 c-0.04 0 -0.04 0.04 -0.04 0.08 c0 0 0 0.04 0.04 0.04 l0 -0.12 z M110.776 24.96 c-0.04 0 -0.08 0.04 -0.08 0.08 c0 0 0.04 0.04 0.08 0.04 s0.04 -0.04 0.04 -0.04 c0 -0.04 0 -0.08 -0.04 -0.08 z M111.056 24.96 c0 -0.04 0 -0.04 -0.04 -0.04 l0 0.08 c0.04 0 0.04 0 0.04 -0.04 z M110.776 23.2 l-0.04 -0.04 c-0.04 0 -0.04 0.04 -0.04 0.04 c0 0.04 0 0.08 0.04 0.08 c0 0 0.04 -0.04 0.04 -0.08 z M123.536 19.84 c0 -0.04 -0.04 -0.04 -0.08 -0.04 c0 0 -0.04 0 -0.04 0.04 s0.04 0.08 0.04 0.08 c0.04 0 0.08 -0.04 0.08 -0.08 z M129.216 17.92 c-0.04 0 -0.08 0.04 -0.08 0.08 c0 0 0.04 0.04 0.08 0.04 s0.04 -0.04 0.04 -0.04 c0 -0.04 0 -0.08 -0.04 -0.08 z M115.296 15.920000000000002 c-0.04 0.04 -0.04 0.12 -0.04 0.16 l0.44 0 c-0.04 -0.08 -0.2 -0.16 -0.4 -0.16 z M110.696 14.36 l0 0.16 c0.04 0 0.04 -0.04 0.04 -0.08 s0 -0.08 -0.04 -0.08 z M110.696 12.32 l0 0.16 c0.04 0 0.04 -0.04 0.04 -0.08 s0 -0.08 -0.04 -0.08 z M129.616 10.84 l0 0.4 l0.04 -0.2 c0 -0.08 0 -0.12 -0.04 -0.2 z M109.296 11.079999999999998 c-0.04 0 -0.04 0.04 -0.04 0.08 s0 0.08 0.04 0.08 s0.04 -0.04 0.04 -0.08 s0 -0.08 -0.04 -0.08 z M112.656 11.16 c0 -0.04 -0.04 -0.04 -0.04 -0.04 c-0.04 0 -0.04 0 -0.04 0.04 s0 0.08 0.04 0.08 c0 0 0.04 -0.04 0.04 -0.08 z M108.176 10.760000000000002 c-0.36 0 -0.16 0.28 -0.28 0.32 c0.24 0 0.28 -0.04 0.28 -0.12 c0 -0.04 -0.04 -0.08 -0.04 -0.12 s0.04 -0.04 0.04 -0.08 z M109.136 10.96 l0.12 0.08 l0.04 -0.08 l-0.08 -0.04 z M107.376 10.84 c-0.04 0 -0.04 0.04 -0.04 0.08 c0 0 0 0.04 0.04 0.04 s0.04 -0.04 0.04 -0.04 c0 -0.04 0 -0.08 -0.04 -0.08 z M107.776 10.68 l-0.28 0.08 l0.28 0 l0 -0.08 z M111.336 10.68 c-0.04 0 -0.08 0.04 -0.08 0.04 c0 0.04 0.04 0.04 0.08 0.04 c0 0 0.04 0 0.04 -0.04 z M115.376 10.68 l0 0.08 l0.04 0 z M107.976 10.68 l-0.08 0 c0 0.04 0 0.08 0.04 0.08 c0 0 0.04 -0.04 0.04 -0.08 z M108.896 10.64 c-0.08 0 -0.08 0.08 -0.08 0.08 c0.04 0 0.04 -0.04 0.08 -0.08 z M110.616 10.68 l-0.08 0 c0 0.04 0 0.08 0.04 0.08 c0 0 0.04 -0.04 0.04 -0.08 z M117.136 10.64 c-0.08 0 -0.16 0.04 -0.24 0.04 l0.28 0 z M106.776 10.64 c0 0 0 -0.04 -0.04 -0.04 l0 0.08 c0.04 0 0.04 0 0.04 -0.04 z M118.856 10.52 c0 0.16 0.04 0.08 0.08 0.12 c0 0 0.04 0 0.08 -0.04 l-0.08 -0.16 z M129.45600000000002 10.120000000000001 l0 0.48 l0.08 0 c0 -0.12 0.04 -0.48 -0.08 -0.48 z M108.416 10.2 c-0.04 0 -0.08 0.04 -0.08 0.04 c0 0.04 0.04 0.04 0.08 0.04 s0.04 0 0.04 -0.04 c0 0 0 -0.04 -0.04 -0.04 z M107.096 10.2 l-0.04 -0.08 z M107.57600000000001 10.04 c-0.08 0.04 -0.12 0.08 -0.12 0.12 l0.04 0.04 l0.08 0 l0 -0.16 z"/></g>
			</g>
		</svg>
	